<ttFont>
          <CharString index="0">
            9 -106 callgsubr
            -9 vhcurveto
            return
          </CharString>
          <CharString index="1">
            hlineto
            -107 callsubr
            return
          </CharString>
          <CharString index="2">
            rmoveto
            -104 callgsubr
            return
          </CharString>
          <CharString index="3">
            17 callsubr
            -73 callsubr
            return
          </CharString>
          <CharString index="4">
            vhcurveto
            84 -106 callsubr
            return
          </CharString>
          <CharString index="5">
            -78 callsubr
            -19 vlineto
            return
          </CharString>
          <CharString index="6">
            567 callgsubr
            -99 callsubr
            return
          </CharString>
          <CharString index="7">
            -101 callsubr
            34 23 59 return
          </CharString>
          <CharString index="8">
            -124 vlineto
            6 callsubr
            return
          </CharString>
          <CharString index="9">
            rmoveto
            -107 callgsubr
            return
          </CharString>
          <CharString index="10">
            -96 callgsubr
            -153 258 rlineto
            return
          </CharString>
          <CharString index="11">
            hlineto
            -95 callsubr
            return
          </CharString>
          <CharString index="12">
            7 -94 callgsubr
            return
          </CharString>
          <CharString index="13">
            -96 callsubr
            -213 vlineto
            -74 -38 -21 -50 402 callgsubr
            214 48 callgsubr
            return
          </CharString>
          <CharString index="14">
            rmoveto
            0 callsubr
            -51 203 callgsubr
            51 462 callgsubr
            -140 hlineto
            -10 -4 279 callgsubr
            20 -24 162 -236 rlineto
            -6 4 4 -4 7 278 callsubr
            4 5 3 -2 3 -2 3 hvcurveto
            return
          </CharString>
          <CharString index="15">
            4 -109 hlineto
            -9 4 -3 7 vhcurveto
            23 hlineto
            8 -95 callgsubr
            232 23 callgsubr
            -33 vlineto
            -55 338 callsubr
            -71 hlineto
            204 callsubr
            89 115 callsubr
            163 hlineto
            14 367 callsubr
            128 48 callgsubr
            83 -46 callsubr
            return
          </CharString>
          <CharString index="16">
            543 callgsubr
            42 71 hvcurveto
            91 20 vlineto
            79 50 36 90 hvcurveto
            15 473 callgsubr
            return
          </CharString>
          <CharString index="17">
            hlineto
            -9 4 -3 7 vhcurveto
            25 -23 callgsubr
            332 33 callsubr
            36 hlineto
            63 297 callsubr
            -102 vlineto
            -64 -34 -35 -63 vhcurveto
            -46 hlineto
            -9 165 callgsubr
            -21 20 callsubr
            49 hlineto
            87 55 53 88 hvcurveto
            106 vlineto
            88 -55 53 -87 vhcurveto
            -34 hlineto
            -48 -36 -17 -30 -14 hvcurveto
            -4 138 hlineto
            3 callgsubr
            return
          </CharString>
          <CharString index="18">
            51 -98 callsubr
            return
          </CharString>
          <CharString index="19">
            hlineto
            -107 callgsubr
            return
          </CharString>
          <CharString index="20">
            rmoveto
            205 callgsubr
            -29 hlineto
            -23 callsubr
            203 -96 callsubr
            -354 51 rmoveto
            14 callsubr
            -250 vlineto
            -57 callsubr
            return
          </CharString>
          <CharString index="21">
            7 -95 callgsubr
            return
          </CharString>
          <CharString index="22">
            -42 callgsubr
            332 vlineto
            -44 callsubr
            50 461 callgsubr
            88 hvcurveto
            106 vlineto
            88 -55 53 -86 vhcurveto
            39 callsubr
            332 -106 callsubr
            endchar
          </CharString>
          <CharString index="23">
            216 callgsubr
            -299 424 callgsubr
            -147 hlineto
            -11 21 -17 16 -24 9 rrcurveto
            4 vlineto
            44 17 23 41 56 vvcurveto
            27 vlineto
            89 -52 52 -89 vhcurveto
            -92 -88 callsubr
            89 hlineto
            63 314 callsubr
            -25 vlineto
            -63 -33 -34 -63 vhcurveto
            -63 hlineto
            -8 -4 -78 callsubr
            -21 20 callsubr
            63 hlineto
            63 33 -33 -63 hvcurveto
            -38 vlineto
            -63 -33 -36 -63 vhcurveto
            -124 -48 callsubr
            126 hlineto
            87 55 54 89 hvcurveto
            42 vlineto
            8 -1 8 -1 8 535 callsubr
            2 -4 -5 hvcurveto
            167 callgsubr
            return
          </CharString>
          <CharString index="24">
            rmoveto
            -75 callsubr
            42 hlineto
            71 1 51 40 90 vvcurveto
            157 48 callgsubr
            return
          </CharString>
          <CharString index="25">
            -62 -28 34 64 hvcurveto
            36 vlineto
            64 27 33 62 vhcurveto
            16 -61 callgsubr
            -18 hlineto
            -87 -48 -53 -84 hvcurveto
            -43 vlineto
            return
          </CharString>
          <CharString index="26">
            vlineto
            -88 53 -53 95 vhcurveto
            163 586 callsubr
            8 170 callgsubr
            -160 hlineto
            -69 -34 35 65 hvcurveto
            29 -70 callgsubr
            return
          </CharString>
          <CharString index="27">
            rlineto
            -6 3 4 -74 callsubr
            return
          </CharString>
          <CharString index="28">
            -5 124 269 502 callgsubr
            89 vlineto
            62 376 callsubr
            79 470 callgsubr
            -62 hvcurveto
            -89 -13 callsubr
            41 -269 rmoveto
            118 callgsubr
            -205 hlineto
            -62 -32 36 62 hvcurveto
            77 188 callsubr
            9 366 callgsubr
            127 57 callsubr
            return
          </CharString>
          <CharString index="29">
            -4 -7 hvcurveto
            return
          </CharString>
          <CharString index="30">
            264 588 rmoveto
            4 hlineto
            116 -371 rlineto
            -235 hlineto
            -81 -217 rmoveto
            7 3 3 9 3 hvcurveto
            54 160 rlineto
            262 hlineto
            54 -160 268 callgsubr
            32 hlineto
            7 2 3 9 565 callgsubr
            619 rlineto
            9 -3 -4 3 -7 hhcurveto
            -47 374 callgsubr
            565 callgsubr
            -619 rlineto
            -9 -3 3 -3 7 hhcurveto
            return
          </CharString>
          <CharString index="31">
            vlineto
            -65 callsubr
            return
          </CharString>
          <CharString index="32">
            -29 callsubr
            -178 263 rlineto
            return
          </CharString>
          <CharString index="33">
            -4 8 278 callsubr
            3 6 5 -4 6 -2 2 hvcurveto
            return
          </CharString>
          <CharString index="34">
            19 vlineto
            7 return
          </CharString>
          <CharString index="35">
            -18 callsubr
            364 callgsubr
            return
          </CharString>
          <CharString index="36">
            -9 4 -3 7 vhcurveto
            26 hlineto
            7 35 callgsubr
            return
          </CharString>
          <CharString index="37">
            rmoveto
            9 -4 3 -7 vhcurveto
            -31 hlineto
            -26 callsubr
            31 -23 callgsubr
            return
          </CharString>
          <CharString index="38">
            hlineto
            -65 callgsubr
            return
          </CharString>
          <CharString index="39">
            24 15 13 397 callgsubr
            2 3 7 vhcurveto
            return
          </CharString>
          <CharString index="40">
            -57 callgsubr
            -29 hlineto
            -7 -4 -3 -9 hvcurveto
            -355 vlineto
            135 callsubr
            354 vlineto
            -72 callsubr
            -356 vlineto
            -88 53 -54 85 vhcurveto
            return
          </CharString>
          <CharString index="41">
            -53 87 vhcurveto
            -50 callsubr
            return
          </CharString>
          <CharString index="42">
            -7 -56 callsubr
            return
          </CharString>
          <CharString index="43">
            377 143 rmoveto
            -63 -40 -35 -63 vhcurveto
            -65 28 callgsubr
            -108 -456 -1 callsubr
            -212 -44 callgsubr
            return
          </CharString>
          <CharString index="44">
            -92 callgsubr
            -386 -53 callgsubr
            return
          </CharString>
          <CharString index="45">
            -71 callsubr
            3 8 vhcurveto
            return
          </CharString>
          <CharString index="46">
            -88 callsubr
            126 -94 callsubr
            return
          </CharString>
          <CharString index="47">
            56 338 hmoveto
            85 callsubr
            -123 hlineto
            -86 -54 573 callsubr
            54 -54 86 vhcurveto
            4 45 rmoveto
            105 callgsubr
            561 callgsubr
            33 36 61 vhcurveto
            114 47 callsubr
            return
          </CharString>
          <CharString index="48">
            80 callgsubr
            21 vlineto
            return
          </CharString>
          <CharString index="49">
            -3 callsubr
            vhcurveto
            return
          </CharString>
          <CharString index="50">
            133 callsubr
            -42 callgsubr
            return
          </CharString>
          <CharString index="51">
            3 -86 callgsubr
            return
          </CharString>
          <CharString index="52">
            hlineto
            9 4 3 8 456 callgsubr
            return
          </CharString>
          <CharString index="53">
            -33 callgsubr
            63 vhcurveto
            49 hlineto
            9 return
          </CharString>
          <CharString index="54">
            vlineto
            -50 callgsubr
            return
          </CharString>
          <CharString index="55">
            164 callsubr
            7 return
          </CharString>
          <CharString index="56">
            hvcurveto
            -22 -76 callsubr
            return
          </CharString>
          <CharString index="57">
            35 -24 callgsubr
            7 vhcurveto
            25 hlineto
            return
          </CharString>
          <CharString index="58">
            13 callgsubr
            560 48 callgsubr
            return
          </CharString>
          <CharString index="59">
            hlineto
            -41 callsubr
            return
          </CharString>
          <CharString index="60">
            -73 -38 361 callsubr
            82 53 39 95 hvcurveto
            53 vlineto
            80 -51 36 -71 -72 -47 -38 -75 vhcurveto
            -46 vlineto
            71 callsubr
            43 140 callgsubr
            -52 vlineto
            -68 -36 -23 -53 vhcurveto
            541 callsubr
            165 callgsubr
            return
          </CharString>
          <CharString index="61">
            hlineto
            8 4 4 8 hvcurveto
            19 427 callsubr
            return
          </CharString>
          <CharString index="62">
            278 callgsubr
            -145 -7 callgsubr
            -13 98 callsubr
            145 127 callsubr
            return
          </CharString>
          <CharString index="63">
            505 callsubr
            36 hlineto
            63 297 callsubr
            -102 vlineto
            -64 -34 -35 -63 vhcurveto
            -46 hlineto
            -9 165 callgsubr
            -21 20 callsubr
            return
          </CharString>
          <CharString index="64">
            -9 5 -3 7 vhcurveto
            25 hlineto
            8 4 3 9 hvcurveto
            560 34 callsubr
            return
          </CharString>
          <CharString index="65">
            -101 callgsubr
            -87 -54 -53 -88 -1 hvcurveto
            return
          </CharString>
          <CharString index="66">
            -9 -3 -4 -7 -51 callsubr
            return
          </CharString>
          <CharString index="67">
            19 -24 168 -248 -60 callgsubr
            return
          </CharString>
          <CharString index="68">
            69 callsubr
            -8 24 -16 12 vhcurveto
            return
          </CharString>
          <CharString index="69">
            -13 callgsubr
            448 callgsubr
            55 return
          </CharString>
          <CharString index="70">
            51 179 callsubr
            return
          </CharString>
          <CharString index="71">
            -38 callsubr
            -53 542 callgsubr
            return
          </CharString>
          <CharString index="72">
            vlineto
            55 27 29 55 -15 callsubr
            return
          </CharString>
          <CharString index="73">
            344 callgsubr
            18 3 15 5 13 vhcurveto
            220 -225 rlineto
            -23 -16 -27 -12 -37 hhcurveto
            -261 29 callgsubr
            return
          </CharString>
          <CharString index="74">
            83 267 callgsubr
            return
          </CharString>
          <CharString index="75">
            -84 callsubr
            164 hlineto
            return
          </CharString>
          <CharString index="76">
            89 callgsubr
            25 hlineto
            8 -95 callgsubr
            560 48 callgsubr
            85 -16 callsubr
            return
          </CharString>
          <CharString index="77">
            hlineto
            43 callsubr
            -5 vvcurveto
            return
          </CharString>
          <CharString index="78">
            -107 callgsubr
            201 -96 callsubr
            -156 vlineto
            -68 -36 -20 -45 vhcurveto
            -80 hlineto
            -9 -4 -5 -8 hvcurveto
            -32 vlineto
            -40 callsubr
            return
          </CharString>
          <CharString index="79">
            295 callsubr
            246 vlineto
            6 2 3 8 vhcurveto
            return
          </CharString>
          <CharString index="80">
            vhcurveto
            84 -69 callsubr
            return
          </CharString>
          <CharString index="81">
            -7 -4 -3 -9 30 callsubr
            return
          </CharString>
          <CharString index="82">
            3 7 vhcurveto
            return
          </CharString>
          <CharString index="83">
            hvcurveto
            -14 callsubr
            return
          </CharString>
          <CharString index="84">
            -62 -28 callsubr
            return
          </CharString>
          <CharString index="85">
            1 callgsubr
            -87 -54 -53 -88 hvcurveto
            return
          </CharString>
          <CharString index="86">
            vlineto
            -64 -33 -36 -64 vhcurveto
            -151 hlineto
            -63 -25 27 63 hvcurveto
            42 vlineto
            56 25 29 59 vhcurveto
            39 123 callgsubr
            -41 237 callsubr
            62 589 callgsubr
            57 vhcurveto
            return
          </CharString>
          <CharString index="87">
            rmoveto
            -5 -2 -4 -8 vhcurveto
            -204 hlineto
            -6 -3 3 7 hvcurveto
            225 12 callgsubr
            return
          </CharString>
          <CharString index="88">
            -6 callgsubr
            4 return
          </CharString>
          <CharString index="89">
            9 81 callgsubr
            return
          </CharString>
          <CharString index="90">
            hlineto
            83 53 43 95 hvcurveto
            89 vlineto
            86 -47 39 -83 -85 -46 -39 -86 vhcurveto
            return
          </CharString>
          <CharString index="91">
            hlineto
            -14 callgsubr
            return
          </CharString>
          <CharString index="92">
            vhcurveto
            62 -61 callgsubr
            -62 hlineto
            -54 -28 28 55 hvcurveto
            return
          </CharString>
          <CharString index="93">
            22 -51 callgsubr
            return
          </CharString>
          <CharString index="94">
            vlineto
            -2 callsubr
            return
          </CharString>
          <CharString index="95">
            53 callgsubr
            155 424 callsubr
            127 vlineto
            6 3 3 7 vhcurveto
            return
          </CharString>
          <CharString index="96">
            82 hlineto
            58 23 -17 -52 hvcurveto
            -45 vlineto
            -52 564 callsubr
            -87 hlineto
            -58 -21 17 62 hvcurveto
            8 vlineto
            10 -4 4 -7 vhcurveto
            -24 456 callsubr
            -8 vlineto
            return
          </CharString>
          <CharString index="97">
            13 callsubr
            26 hlineto
            7 136 callgsubr
            return
          </CharString>
          <CharString index="98">
            -25 callsubr
            332 -46 callsubr
            return
          </CharString>
          <CharString index="99">
            -69 -41 -43 -74 vhcurveto
            -80 hlineto
            return
          </CharString>
          <CharString index="100">
            -73 callgsubr
            -9 vhcurveto
            return
          </CharString>
          <CharString index="101">
            vhcurveto
            25 hlineto
            8 -95 callgsubr
            560 34 callsubr
            endchar
          </CharString>
          <CharString index="102">
            68 callsubr
            25 hlineto
            8 213 callsubr
            return
          </CharString>
          <CharString index="103">
            rlineto
            -2 -3 -2 -4 -3 vvcurveto
            -7 4 -2 446 callsubr
            5 4 6 308 callsubr
            95 -128 rlineto
            -6 5 4 -4 7 hhcurveto
            29 hlineto
            7 4 2 7 3 -2 4 -2 3 hvcurveto
            return
          </CharString>
          <CharString index="104">
            -3 4 -9 return
          </CharString>
          <CharString index="105">
            -6 -2 -3 -7 vhcurveto
            return
          </CharString>
          <CharString index="106">
            rmoveto
            -57 callgsubr
            return
          </CharString>
          <CharString index="107">
            97 -17 callsubr
            return
          </CharString>
          <CharString index="108">
            82 124 hmoveto
            8 callsubr
            return
          </CharString>
          <CharString index="109">
            -92 34 11 rmoveto
            -65 callsubr
            313 -4 callgsubr
            -258 4 hlineto
            258 411 rlineto
            3 5 2 4 8 vvcurveto
            -14 callsubr
            -300 hlineto
            -8 420 callgsubr
            8 vhcurveto
            250 -4 hlineto
            -262 -417 rlineto
            -4 -5 -2 -4 -10 vvcurveto
            return
          </CharString>
          <CharString index="110">
            418 callsubr
            -2 -3 -7 vhcurveto
            return
          </CharString>
          <CharString index="111">
            hlineto
            6 198 callsubr
            return
          </CharString>
          <CharString index="112">
            hlineto
            -35 callgsubr
            return
          </CharString>
          <CharString index="113">
            -96 288 callgsubr
            51 -55 callsubr
            -47 hlineto
            -64 -34 -85 callgsubr
            7 4 4 8 hvcurveto
            87 vlineto
            74 return
          </CharString>
          <CharString index="114">
            581 callsubr
            -22 197 callgsubr
            85 hlineto
            50 39 -22 -73 hvcurveto
            -100 84 callgsubr
            53 38 89 3 hvcurveto
            1 35 rlineto
            6 2 3 8 vhcurveto
            return
          </CharString>
          <CharString index="115">
            -86 callsubr
            523 4 vlineto
            306 -524 rlineto
            -5 3 3 -6 10 hhcurveto
            23 181 callgsubr
            -28 hlineto
            31 callgsubr
            -522 -4 vlineto
            -307 528 rlineto
            2 -1 -3 4 -8 hhcurveto
            -27 5 callgsubr
            return
          </CharString>
          <CharString index="116">
            178 callsubr
            8 vhcurveto
            return
          </CharString>
          <CharString index="117">
            hlineto
            9 4 -104 callsubr
            -4 4 -9 vhcurveto
            endchar
          </CharString>
          <CharString index="118">
            389 callsubr
            44 vlineto
            63 32 36 60 vhcurveto
            64 hlineto
            9 4 4 7 hvcurveto
            22 vlineto
            7 -4 78 callsubr
            return
          </CharString>
          <CharString index="119">
            14 141 callgsubr
            return
          </CharString>
          <CharString index="120">
            22 callsubr
            7 vhcurveto
            return
          </CharString>
          <CharString index="121">
            -107 callgsubr
            76 -30 callsubr
            return
          </CharString>
          <CharString index="122">
            105 callgsubr
            222 vlineto
            63 33 36 61 vhcurveto
            return
          </CharString>
          <CharString index="123">
            -100 callgsubr
            -87 55 -49 return
          </CharString>
          <CharString index="124">
            4 8 hvcurveto
            return
          </CharString>
          <CharString index="125">
            rmoveto
            -8 40 callgsubr
            return
          </CharString>
          <CharString index="126">
            -184 204 callgsubr
            342 vlineto
            68 39 43 65 vhcurveto
            47 hlineto
            8 -1 3 4 7 vvcurveto
            24 273 callsubr
            -60 -36 -30 -24 -12 hvcurveto
            -4 42 hlineto
            -72 callsubr
            -486 176 callgsubr
            return
          </CharString>
          <CharString index="127">
            vlineto
            49 callsubr
            return
          </CharString>
          <CharString index="128">
            58 23 -17 -50 hvcurveto
            -42 vlineto
            -51 -23 -18 -58 vhcurveto
            -87 hlineto
            -55 539 callsubr
            21 16 callgsubr
            -8 -18 callgsubr
            -190 vlineto
            -9 4 -2 8 vhcurveto
            23 hlineto
            8 400 callgsubr
            81 4 vlineto
            -26 16 31 -9 37 hhcurveto
            86 hlineto
            81 44 37 74 hvcurveto
            47 vlineto
            74 -44 33 -81 vhcurveto
            -90 hlineto
            -57 -23 17 50 hvcurveto
            13 vlineto
            50 22 18 58 vhcurveto
            161 424 callsubr
            return
          </CharString>
          <CharString index="129">
            104 callgsubr
            4 -3 return
          </CharString>
          <CharString index="130">
            -38 99 -152 rmoveto
            112 31 92 88 29 hvcurveto
            160 470 498 callsubr
            -30 hlineto
            -7 -4 -3 -9 -2 hvcurveto
            -147 -429 rlineto
            -4 hlineto
            -147 429 465 callgsubr
            -4 -3 -9 3 hvcurveto
            159 -459 rlineto
            -8 2 4 -4 8 hhcurveto
            19 hlineto
            -65 -24 -20 -68 -88 hhcurveto
            -27 hlineto
            355 callgsubr
            -4 9 vhcurveto
            return
          </CharString>
          <CharString index="131">
            rmoveto
            6 2 -9 callsubr
            -672 -88 callsubr
            273 -92 callgsubr
            -342 vlineto
            -89 callgsubr
            9 3 -52 callsubr
            -3 callsubr
            280 callsubr
            5 3 9 hvcurveto
            332 vlineto
            -44 callsubr
            49 hlineto
            87 55 53 88 hvcurveto
            106 vlineto
            88 -55 53 -87 vhcurveto
            189 callgsubr
            hlineto
            return
          </CharString>
          <CharString index="132">
            rmoveto
            -9 4 -3 6 vhcurveto
            294 callsubr
            106 162 callgsubr
            -28 284 callsubr
            return
          </CharString>
          <CharString index="133">
            86 54 54 88 hvcurveto
            49 vlineto
            9 478 callgsubr
            -28 hlineto
            31 callgsubr
            -47 vlineto
            -63 -33 -36 -62 vhcurveto
            -117 hlineto
            105 callgsubr
            561 callgsubr
            33 36 61 vhcurveto
            117 hlineto
            62 314 callsubr
            -47 vlineto
            -9 4 -3 7 vhcurveto
            28 557 callsubr
            49 vlineto
            88 367 callgsubr
            -126 hlineto
            -86 -54 573 callsubr
            54 -54 86 vhcurveto
            endchar
          </CharString>
          <CharString index="134">
            102 -12 callgsubr
            return
          </CharString>
          <CharString index="135">
            -62 375 callsubr
            211 vlineto
            229 -262 rlineto
            -24 -24 -28 -22 -39 hhcurveto
            return
          </CharString>
          <CharString index="136">
            419 callsubr
            18 3 16 5 13 vhcurveto
            217 -221 rlineto
            -26 -16 -28 -14 -40 hhcurveto
            return
          </CharString>
          <CharString index="137">
            hvcurveto
            -33 vlineto
            -9 4 -3 7 vhcurveto
            return
          </CharString>
          <CharString index="138">
            18 callgsubr
            -163 -106 rmoveto
            -9 4 -3 7 vhcurveto
            27 -23 callgsubr
            106 162 callgsubr
            -27 549 callgsubr
          </CharString>
          <CharString index="139">
            371 callgsubr
            218 callgsubr
            -53 86 vhcurveto
            return
          </CharString>
          <CharString index="140">
            vlineto
            60 35 33 61 vhcurveto
            return
          </CharString>
          <CharString index="141">
            vlineto
            6 2 -39 callgsubr
            return
          </CharString>
          <CharString index="142">
            rmoveto
            -61 -32 32 63 hvcurveto
            108 vlineto
            234 -202 rlineto
            -1 -2 -2 0 -3 hhcurveto
            8 242 459 callgsubr
            -194 vlineto
            -236 203 rlineto
            1 hlineto
            -137 42 -98 callsubr
            71 -96 callsubr
            -140 vlineto
            -53 23 557 callgsubr
            -41 -16 -26 -43 -66 vvcurveto
            -65 vlineto
            return
          </CharString>
          <CharString index="143">
            -41 -20 -47 -16 hvcurveto
            -4 hlineto
            -101 callsubr
            36 23 55 59 return
          </CharString>
          <CharString index="144">
            hlineto
            42 callsubr
            return
          </CharString>
          <CharString index="145">
            16 callgsubr
            -7 return
          </CharString>
          <CharString index="146">
            -35 37 callsubr
            138 hlineto
            6 callgsubr
            return
          </CharString>
          <CharString index="147">
            240 callsubr
            17 hvcurveto
            return
          </CharString>
          <CharString index="148">
            hhcurveto
            -112 65 callgsubr
            32 -69 callsubr
            -497 -61 callsubr
            184 307 callsubr
            -33 vlineto
            -52 17 -32 45 -16 vhcurveto
            -4 vlineto
            -43 -15 -19 -34 -55 vvcurveto
            -41 vlineto
            -86 51 -45 85 vhcurveto
            117 hlineto
            return
          </CharString>
          <CharString index="149">
            166 callgsubr
            -13 hvcurveto
            -4 return
          </CharString>
          <CharString index="150">
            5 -1 3 -3 return
          </CharString>
          <CharString index="151">
            267 124 callgsubr
            -73 -40 42 71 hvcurveto
            100 20 vlineto
            79 50 33 90 hvcurveto
            5 vlineto
            41 -12 26 160 callgsubr
            -448 -160 203 callsubr
            207 4 callsubr
            247 hlineto
            63 24 -24 -57 hvcurveto
            -4 vlineto
            -67 -27 -17 -60 vhcurveto
            return
          </CharString>
          <CharString index="152">
            239 callsubr
            -12 vlineto
            -68 return
          </CharString>
          <CharString index="153">
            -8 -3 -3 -8 hvcurveto
            -34 vlineto
            -8 3 -4 8 vhcurveto
            30 172 callsubr
            34 162 callgsubr
            return
          </CharString>
          <CharString index="154">
            hlineto
            62 314 callsubr
            460 callgsubr
            -33 -36 -62 vhcurveto
            return
          </CharString>
          <CharString index="155">
            2 -25 callsubr
            return
          </CharString>
          <CharString index="156">
            -8 -56 callsubr
            return
          </CharString>
          <CharString index="157">
            -9 4 -3 8 vhcurveto
            25 -23 callgsubr
            return
          </CharString>
          <CharString index="158">
            450 callgsubr
            108 hlineto
            76 53 42 94 hvcurveto
            return
          </CharString>
          <CharString index="159">
            rmoveto
            160 -92 callgsubr
            -376 vlineto
            -9 4 -3 7 vhcurveto
            25 hlineto
            8 -95 callgsubr
            560 34 callsubr
            -1039 -88 callsubr
            888 -92 callgsubr
            -121 vlineto
            -5 -3 -4 -7 vhcurveto
            -311 hlineto
            -9 165 callgsubr
            -22 20 callsubr
            55 hlineto
            49 40 -21 -73 hvcurveto
            -94 vlineto
            -71 540 callgsubr
            -133 523 callgsubr
            141 hlineto
            77 52 42 94 hvcurveto
            99 vlineto
            42 155 callsubr
            return
          </CharString>
          <CharString index="160">
            -4 261 hmoveto
            295 callgsubr
            231 vlineto
            195 388 rlineto
            8 3 -4 4 -6 hhcurveto
            -37 219 callsubr
            -4 hvcurveto
            -159 -327 rlineto
            -5 hlineto
            -160 327 rlineto
            9 -4 -3 3 -7 hhcurveto
            -36 hlineto
            -6 -5 -4 -8 4 hvcurveto
            194 -388 rlineto
            526 callgsubr
            return
          </CharString>
          <CharString index="161">
            -46 413 hmoveto
            266 callgsubr
            -268 hlineto
            -7 229 callgsubr
            575 134 callgsubr
            return
          </CharString>
          <CharString index="162">
            rmoveto
            42 callgsubr
            -134 hlineto
            249 callgsubr
            return
          </CharString>
          <CharString index="163">
            hlineto
            87 51 58 81 hvcurveto
            127 vlineto
            47 -14 34 -27 20 vhcurveto
            9 9 5 14 18 vvcurveto
            122 vlineto
            5 3 3 8 vhcurveto
            91 hlineto
            9 1 3 3 8 vvcurveto
            171 callgsubr
            endchar
          </CharString>
          <CharString index="164">
            vlineto
            88 -55 54 -86 vhcurveto
            -86 -44 callgsubr
            return
          </CharString>
          <CharString index="165">
            0 -24 -15 -43 -42 vhcurveto
            -62 -60 136 callsubr
            -4 3 -4 7 vhcurveto
            26 155 callgsubr
            return
          </CharString>
          <CharString index="166">
            -107 callgsubr
            133 14 callgsubr
            return
          </CharString>
          <CharString index="167">
            -107 callgsubr
            337 hlineto
            7 3 -3 -6 hvcurveto
            -340 vlineto
            -81 callgsubr
            -87 -54 -53 -88 -1 hvcurveto
            return
          </CharString>
          <CharString index="168">
            -6 -3 -8 -4 hvcurveto
            -63 -106 rlineto
            -8 return
          </CharString>
          <CharString index="169">
            rmoveto
            57 33 23 29 14 hvcurveto
            4 -77 hlineto
            375 callgsubr
            -178 hlineto
            -9 -2 -4 -6 hvcurveto
            -24 vlineto
            -8 2 -3 9 vhcurveto
            182 hlineto
            190 callsubr
            496 vlineto
            539 callgsubr
            -212 172 callgsubr
            -198 vlineto
            -87 53 -54 86 vhcurveto
            return
          </CharString>
          <CharString index="170">
            415 callsubr
            2 -3 -6 hvcurveto
            return
          </CharString>
          <CharString index="171">
            18 callsubr
            1 -4 7 hhcurveto
            20 hlineto
            6 6 159 callsubr
            return
          </CharString>
          <CharString index="172">
            rmoveto
            8 212 callsubr
            -8 hvcurveto
            -218 319 callsubr
            return
          </CharString>
          <CharString index="173">
            hlineto
            9 11 2 2 5 hvcurveto
            -4 vlineto
            0 -40 -36 -49 -52 vhcurveto
            -87 -95 rlineto
            -3 -4 -1 -3 -2 285 callgsubr
            30 hlineto
            return
          </CharString>
          <CharString index="174">
            rmoveto
            5 6 4 5 6 vvcurveto
            4 -2 2 -4 3 vhcurveto
            -10 8 rlineto
            3 -3 -2 1 -4 hhcurveto
            -5 -4 -6 -5 -4 hvcurveto
            -31 -25 -25 -24 -42 hhcurveto
            -4 hlineto
            -82 callsubr
            -81 44 -51 79 vhcurveto
            8 hlineto
            17 11 5 0 hvcurveto
            -4 vlineto
            0 -32 -30 -35 -43 134 callsubr
            7 hvcurveto
            return
          </CharString>
          <CharString index="175">
            hlineto
            63 30 13 callsubr
            return
          </CharString>
          <CharString index="176">
            -107 callgsubr
            296 hlineto
            94 callsubr
            -8 206 callsubr
            -20 -48 19 callgsubr
            -222 vlineto
            -9 5 -3 7 vhcurveto
            23 hlineto
            8 4 3 9 hvcurveto
            109 89 callsubr
            28 return
          </CharString>
          <CharString index="177">
            320 callgsubr
            235 callsubr
            -5 17 18 vvcurveto
            35 589 callsubr
            171 hlineto
            7 return
          </CharString>
          <CharString index="178">
            -9 126 callsubr
            9 hvcurveto
            return
          </CharString>
          <CharString index="179">
            600 callsubr
            53 39 95 hvcurveto
            53 vlineto
            80 -51 36 -71 -72 -47 -38 -75 vhcurveto
            -46 vlineto
            71 callsubr
            43 140 callgsubr
            -52 vlineto
            -68 -35 -23 -53 vhcurveto
            -301 hlineto
            -63 -34 514 callgsubr
            21 hlineto
            6 4 3 6 4 -1 4 -3 8 hvcurveto
            -5 17 -5 18 18 vvcurveto
            35 19 22 41 vhcurveto
            157 -62 hlineto
            583 callgsubr
            return
          </CharString>
          <CharString index="180">
            122 vlineto
            63 -34 45 -51 12 vhcurveto
            247 callsubr
            198 callsubr
            return
          </CharString>
          <CharString index="181">
            36 90 hvcurveto
            15 vlineto
            41 return
          </CharString>
          <CharString index="182">
            hmoveto
            83 callsubr
            return
          </CharString>
          <CharString index="183">
            52 330 callsubr
            -84 hlineto
            -57 -23 16 52 hvcurveto
            13 66 callgsubr
            return
          </CharString>
          <CharString index="184">
            0 -40 -33 -52 -57 vhcurveto
            -87 -94 136 callsubr
            -4 3 -5 7 vhcurveto
            return
          </CharString>
          <CharString index="185">
            4 -9 vhcurveto
            -276 -48 callsubr
            117 return
          </CharString>
          <CharString index="186">
            -86 callsubr
            679 vlineto
            -72 callsubr
            return
          </CharString>
          <CharString index="187">
            vlineto
            9 -4 3 -8 vhcurveto
            return
          </CharString>
          <CharString index="188">
            hlineto
            -104 callgsubr
            332 33 callsubr
            return
          </CharString>
          <CharString index="189">
            571 callgsubr
            50 vlineto
            114 34 37 50 vhcurveto
            23 hlineto
            9 3 4 422 callgsubr
            -24 hlineto
            -68 -40 -58 -122 -2 hvcurveto
            -5 167 hlineto
            9 -4 357 callgsubr
            -3 -8 hvcurveto
            -37 vlineto
            2 -95 39 -73 7 -16 -3 -1 rcurveline
            -144 222 492 callsubr
            -23 hlineto
            -6 115 callgsubr
            61 -90 54 -78 44 -50 28 -31 rlinecurve
            52 hlineto
            return
          </CharString>
          <CharString index="190">
            79 callsubr
            -679 176 callgsubr
            return
          </CharString>
          <CharString index="191">
            -59 vlineto
            -9 305 callsubr
            9 hvcurveto
            57 vlineto
            63 34 25 63 vhcurveto
            45 hlineto
            return
          </CharString>
          <CharString index="192">
            86 54 54 88 hvcurveto
            359 vlineto
            88 367 callgsubr
            return
          </CharString>
          <CharString index="193">
            52 vlineto
            74 -45 33 -81 vhcurveto
            -84 hlineto
            -57 -23 16 52 hvcurveto
            13 142 callgsubr
          </CharString>
          <CharString index="194">
            -5 -6 4 hvcurveto
            64 -109 rlineto
            -7 5 5 -2 return
          </CharString>
          <CharString index="195">
            rmoveto
            445 callsubr
            -76 43 -34 84 vhcurveto
            75 hlineto
            58 24 558 callgsubr
            -24 -19 -58 vhcurveto
            -71 hlineto
            -56 -28 455 callgsubr
            -7 vhcurveto
            -25 hlineto
            -8 -18 callgsubr
            -222 vlineto
            -9 4 -3 8 vhcurveto
            25 hlineto
            7 510 callgsubr
            71 hlineto
            80 431 callgsubr
            32 vlineto
            75 -45 33 -80 vhcurveto
            -75 hlineto
            -57 -23 17 50 hvcurveto
            5 vlineto
            50 22 18 58 vhcurveto
            return
          </CharString>
          <CharString index="196">
            4 vlineto
            -26 16 31 -8 37 hhcurveto
            52 502 callsubr
            38 vlineto
            return
          </CharString>
          <CharString index="197">
            rmoveto
            -8 433 callsubr
            4 hvcurveto
            90 149 callsubr
            endchar
          </CharString>
          <CharString index="198">
            153 callgsubr
            8 -95 callgsubr
            560 48 callgsubr
            84 hlineto
            9 return
          </CharString>
          <CharString index="199">
            -60 -34 -36 -64 -54 callsubr
            3 -52 callsubr
            -3 callsubr
            vhcurveto
            -53 hlineto
            return
          </CharString>
          <CharString index="200">
            572 callsubr
            3 3 167 callsubr
            return
          </CharString>
          <CharString index="201">
            -95 callsubr
            -76 -13 callsubr
            -94 hlineto
            -81 400 callsubr
            return
          </CharString>
          <CharString index="202">
            vlineto
            145 callsubr
            return
          </CharString>
          <CharString index="203">
            hlineto
            97 callsubr
          </CharString>
          <CharString index="204">
            447 callsubr
            70 hlineto
            477 callgsubr
            17 hvcurveto
            -10 callgsubr
          </CharString>
          <CharString index="205">
            hlineto
            -52 -45 21 74 hvcurveto
            return
          </CharString>
          <CharString index="206">
            rmoveto
            -88 callgsubr
            -7 3 -4 9 vhcurveto
            38 hlineto
            56 23 -27 -57 hvcurveto
            -121 vlineto
            -64 -33 -36 -63 vhcurveto
            -152 hlineto
            -62 -26 27 63 hvcurveto
            42 vlineto
            56 26 29 58 vhcurveto
            40 123 callgsubr
            -42 237 callsubr
            62 589 callgsubr
            58 vhcurveto
            217 5 callsubr
            -123 vlineto
            -8 -1 -7 -2 -6 vhcurveto
            3 -14 -15 2 -17 hhcurveto
            return
          </CharString>
          <CharString index="207">
            467 callgsubr
            -10 hhcurveto
            -21 hlineto
            -10 -5 -2 -7 -5 hvcurveto
            -64 459 callsubr
            -4 2 441 callsubr
            return
          </CharString>
          <CharString index="208">
            318 callsubr
            8 -95 callgsubr
            return
          </CharString>
          <CharString index="209">
            hlineto
            528 callgsubr
            return
          </CharString>
          <CharString index="210">
            hlineto
            -9 -4 -5 -7 hvcurveto
            return
          </CharString>
          <CharString index="211">
            -3 173 callgsubr
            return
          </CharString>
          <CharString index="212">
            -25 -70 vhcurveto
            -89 vlineto
            return
          </CharString>
          <CharString index="213">
            -88 callsubr
            334 307 callsubr
            -33 vlineto
            -36 8 -26 19 -18 vhcurveto
            -182 hlineto
            -64 -33 -39 -56 547 callsubr
            20 hlineto
            7 4 3 6 5 554 callgsubr
            17 -5 18 18 vvcurveto
            35 18 22 41 605 callgsubr
            -19 -19 -9 -27 -38 vvcurveto
            -41 vlineto
            -86 51 -45 85 vhcurveto
            110 hlineto
            return
          </CharString>
          <CharString index="214">
            -34 103 callgsubr
            35 35 63 vhcurveto
            49 4 callgsubr
            return
          </CharString>
          <CharString index="215" raw="1">
            2107f701 0a0b  
          </CharString>
          <CharString index="216" raw="1">
            33c256e2 1ef70b1d 0b 
          </CharString>
          <CharString index="217">
            202 callsubr
            58 hlineto
            50 39 -21 -73 hvcurveto
            return
          </CharString>
          <CharString index="218">
            vhcurveto
            24 hlineto
            8 -95 callgsubr
            return
          </CharString>
          <CharString index="219">
            582 callgsubr
            -73 147 callsubr
            return
          </CharString>
          <CharString index="220">
            37 hlineto
            47 34 12 callsubr
            -126 hlineto
            -9 4 -3 return
          </CharString>
          <CharString index="221">
            40 callsubr
            150 vlineto
            6 return
          </CharString>
          <CharString index="222">
            298 callgsubr
            63 vhcurveto
            return
          </CharString>
          <CharString index="223">
            vhcurveto
            -120 hlineto
            216 callgsubr
            -338 vlineto
            -66 -41 -46 -73 vhcurveto
            -119 151 callsubr
            return
          </CharString>
          <CharString index="224">
            rmoveto
            -23 callsubr
            203 -96 callsubr
            -250 vlineto
            205 callgsubr
            return
          </CharString>
          <CharString index="225">
            hlineto
            -9 -4 -5 -8 hvcurveto
            return
          </CharString>
          <CharString index="226">
            39 vlineto
            10 -4 3 -7 vhcurveto
            -24 hlineto
            -7 -4 -3 -10 hvcurveto
            -38 vlineto
            -64 -36 -36 -63 vhcurveto
            -82 hlineto
            -64 -35 37 64 hvcurveto
            64 vlineto
            64 29 36 63 vhcurveto
            148 hlineto
            42 20 23 35 hvcurveto
            return
          </CharString>
          <CharString index="227">
            hlineto
            62 34 -35 -62 hvcurveto
            -59 vlineto
            29 -43 134 -228 rlineto
            -6 3 4 -4 8 hhcurveto
            28 hlineto
            return
          </CharString>
          <CharString index="228">
            42 -20 -44 22 -56 0 callgsubr
            return
          </CharString>
          <CharString index="229">
            vlineto
            -9 95 callgsubr
            9 hvcurveto
            return
          </CharString>
          <CharString index="230">
            vlineto
            9 -4 3 -7 530 callsubr
            return
          </CharString>
          <CharString index="231">
            220 callgsubr
            143 rmoveto
            -63 -40 -35 -63 vhcurveto
            -65 28 callgsubr
            endchar
          </CharString>
          <CharString index="232">
            261 callsubr
            -87 52 -56 return
          </CharString>
          <CharString index="233">
            4 -3 238 callgsubr
            3 return
          </CharString>
          <CharString index="234">
            vlineto
            73 39 22 51 vhcurveto
            return
          </CharString>
          <CharString index="235">
            -25 callsubr
            85 -106 callsubr
            endchar
          </CharString>
          <CharString index="236">
            hlineto
            8 -95 callgsubr
            560 48 callgsubr
            84 hlineto
            9 4 -104 callsubr
            -4 4 -9 vhcurveto
            return
          </CharString>
          <CharString index="237">
            196 callsubr
            -246 vlineto
            -61 -33 -37 -64 vhcurveto
            return
          </CharString>
          <CharString index="238">
            hvcurveto
            -73 callsubr
            -2 4 return
          </CharString>
          <CharString index="239">
            222 callsubr
            79 50 195 callsubr
            return
          </CharString>
          <CharString index="240">
            -86 261 callgsubr
            return
          </CharString>
          <CharString index="241">
            vhcurveto
            -76 -95 588 callsubr
            -4 -2 551 callsubr
            27 hlineto
            10 5 5 8 return
          </CharString>
          <CharString index="242">
            294 callgsubr
            105 callgsubr
            return
          </CharString>
          <CharString index="243">
            271 callgsubr
            -3 -3 vvcurveto
            return
          </CharString>
          <CharString index="244">
            rmoveto
            9 3 4 8 -24 callsubr
            -290 202 callsubr
            58 417 callsubr
            -34 -24 -55 vhcurveto
            -100 523 callgsubr
            108 hlineto
            77 52 521 callgsubr
            return
          </CharString>
          <CharString index="245">
            rmoveto
            9 3 4 8 -24 callsubr
            404 callsubr
            -64 vlineto
            -71 -34 -24 -54 vhcurveto
            -100 -48 callsubr
            107 hlineto
            77 52 42 95 hvcurveto
            68 vlineto
            42 498 callgsubr
            return
          </CharString>
          <CharString index="246">
            40 callsubr
            103 vlineto
            6 198 callsubr
            return
          </CharString>
          <CharString index="247">
            -2 3 6 hvcurveto
            return
          </CharString>
          <CharString index="248">
            -96 callsubr
            -143 vlineto
            -6 -3 -3 -7 vhcurveto
            -314 hlineto
            -69 callgsubr
            return
          </CharString>
          <CharString index="249">
            -26 callsubr
            31 -23 callgsubr
            33 vlineto
            539 callgsubr
            return
          </CharString>
          <CharString index="250">
            368 callsubr
            -21 5 return
          </CharString>
          <CharString index="251">
            271 callgsubr
            -4 -2 285 callgsubr
            27 hlineto
            9 5 4 7 6 hvcurveto
            return
          </CharString>
          <CharString index="252">
            7 147 callgsubr
            return
          </CharString>
          <CharString index="253">
            hlineto
            8 213 callsubr
            -51 471 callgsubr
          </CharString>
          <CharString index="254">
            -40 42 71 hvcurveto
            91 20 vlineto
            223 callgsubr
            return
          </CharString>
          <CharString index="255">
            hlineto
            -62 385 callsubr
            8 vhcurveto
            return
          </CharString>
          <CharString index="256">
            215 callsubr
            -3 5 -7 hhcurveto
            return
          </CharString>
          <CharString index="257">
            210 callsubr
            325 callgsubr
          </CharString>
          <CharString index="258">
            hlineto
            -47 callsubr
            -95 vlineto
            return
          </CharString>
          <CharString index="259">
            rmoveto
            -9 4 -2 487 callgsubr
            218 vlineto
            7 -4 2 -4 -4 -3 -2 -5 -1 vhcurveto
            -26 -91 rlineto
            -6 -25 -5 -15 -20 vvcurveto
            return
          </CharString>
          <CharString index="260">
            5 2 7 5 hvcurveto
            64 254 callgsubr
            4 return
          </CharString>
          <CharString index="261">
            21 71 280 callgsubr
            6 return
          </CharString>
          <CharString index="262">
            -13 31 -28 15 vhcurveto
            return
          </CharString>
          <CharString index="263">
            179 callsubr
            154 -96 callsubr
            return
          </CharString>
          <CharString index="264">
            60 85 12 rmoveto
            -9 4 -3 6 vhcurveto
            247 hlineto
            85 callsubr
            -247 577 callsubr
            -586 rmoveto
            -7 229 callgsubr
            535 vlineto
            6 198 callsubr
            192 47 callsubr
            return
          </CharString>
          <CharString index="265">
            407 callsubr
            -10 -28 -41 vvcurveto
            -33 351 callgsubr
            return
          </CharString>
          <CharString index="266">
            3 6 5 169 callsubr
            return
          </CharString>
          <CharString index="267">
            29 -16 -30 194 callsubr
            return
          </CharString>
          <CharString index="268">
            219 callgsubr
            vhcurveto
            return
          </CharString>
          <CharString index="269">
            460 callsubr
            -8 vhcurveto
            return
          </CharString>
          <CharString index="270">
            158 callsubr
            -41 vlineto
            -86 541 callgsubr
            110 hlineto
            return
          </CharString>
          <CharString index="271">
            4 7 hvcurveto
            22 vlineto
            return
          </CharString>
          <CharString index="272">
            554 179 rmoveto
            -63 -33 -32 -62 vhcurveto
            -7 hlineto
            -62 -32 32 63 hvcurveto
            125 vlineto
            64 32 31 62 vhcurveto
            7 hlineto
            62 33 -31 -64 hvcurveto
            -244 -125 rmoveto
            -63 -32 -32 -62 vhcurveto
            -7 hlineto
            -62 -33 32 63 hvcurveto
            125 vlineto
            64 33 31 62 vhcurveto
            7 hlineto
            62 32 -31 -64 hvcurveto
            return
          </CharString>
          <CharString index="273">
            383 callgsubr
            -6 -2 -7 -5 hvcurveto
            -63 497 callsubr
            return
          </CharString>
          <CharString index="274">
            6 4 -1 4 -2 8 hvcurveto
            -6 17 -4 18 248 callsubr
            return
          </CharString>
          <CharString index="275">
            -41 148 callsubr
            return
          </CharString>
          <CharString index="276">
            171 callsubr
            -4 5 return
          </CharString>
          <CharString index="277">
            hvcurveto
            23 161 callsubr
            return
          </CharString>
          <CharString index="278">
            hvcurveto
            90 215 callsubr
            return
          </CharString>
          <CharString index="279">
            hlineto
            7 176 callsubr
            return
          </CharString>
          <CharString index="280">
            719 93 callgsubr
            -163 -106 93 callgsubr
            endchar
          </CharString>
          <CharString index="281">
            7 258 callgsubr
            return
          </CharString>
          <CharString index="282">
            hlineto
            256 callsubr
            return
          </CharString>
          <CharString index="283">
            4 17 callsubr
            return
          </CharString>
          <CharString index="284">
            rmoveto
            -9 4 -3 7 vhcurveto
            27 -23 callgsubr
            106 162 callgsubr
            -27 175 callsubr
            -163 -106 25 callsubr
            endchar
          </CharString>
          <CharString index="285">
            -6 234 callsubr
            return
          </CharString>
          <CharString index="286">
            -98 callsubr
            126 -94 callsubr
            return
          </CharString>
          <CharString index="287">
            vhcurveto
            140 -6 rlineto
            537 callsubr
            26 vlineto
            7 -3 4 -8 -1 vhcurveto
            -140 -7 7 166 rlineto
            539 callgsubr
            -28 374 callgsubr
            1 hvcurveto
            7 -166 -139 7 rlineto
            -9 1 -2 -4 -7 vvcurveto
            -26 vlineto
            -7 377 callsubr
            return
          </CharString>
          <CharString index="288">
            24 15 12 397 callgsubr
            198 callsubr
            return
          </CharString>
          <CharString index="289">
            84 478 callsubr
            15 18 vvcurveto
            return
          </CharString>
          <CharString index="290">
            -4 -3 -8 hvcurveto
            return
          </CharString>
          <CharString index="291">
            5 -8 -8 vhcurveto
            -136 -133 rlineto
            -7 -7 -4 -4 -12 vvcurveto
            -19 vlineto
            -13 4 -3 7 -7 vhcurveto
            136 -133 rlineto
            8 -8 return
          </CharString>
          <CharString index="292">
            -98 callsubr
            329 -96 callsubr
            return
          </CharString>
          <CharString index="293">
            -28 -42 vvcurveto
            -66 vlineto
            -51 19 -33 44 -15 vhcurveto
            -4 return
          </CharString>
          <CharString index="294">
            -2 -4 235 callgsubr
            return
          </CharString>
          <CharString index="295">
            48 callgsubr
            296 hlineto
            return
          </CharString>
          <CharString index="296">
            vhcurveto
            29 155 callgsubr
            return
          </CharString>
          <CharString index="297">
            86 55 54 88 hvcurveto
            return
          </CharString>
          <CharString index="298">
            rmoveto
            -3 -3 -2 -3 -4 vvcurveto
            -5 4 354 callsubr
            3 4 163 167 12 15 rrcurveto
            5 5 4 5 7 vvcurveto
            3 -1 3 -4 4 vhcurveto
            -8 7 rlineto
            3 -3 -3 2 -3 hhcurveto
            -5 -3 -3 -5 -5 hvcurveto
            return
          </CharString>
          <CharString index="299">
            rmoveto
            9 3 4 6 394 callsubr
            -202 hlineto
            -88 callgsubr
            -6 -56 callsubr
            endchar
          </CharString>
          <CharString index="300">
            rmoveto
            -64 -40 -34 -63 vhcurveto
            -64 hlineto
            -62 -33 36 62 hvcurveto
            194 vlineto
            63 33 36 62 vhcurveto
            158 -96 callsubr
            return
          </CharString>
          <CharString index="301">
            13 470 callsubr
            -20 -47 return
          </CharString>
          <CharString index="302">
            36 90 hvcurveto
            26 63 callsubr
            return
          </CharString>
          <CharString index="303">
            -33 34 64 hvcurveto
            246 12 callgsubr
            return
          </CharString>
          <CharString index="304">
            vlineto
            77 -45 41 -77 vhcurveto
            return
          </CharString>
          <CharString index="305">
            3 -25 callsubr
            return
          </CharString>
          <CharString index="306">
            hlineto
            -84 -45 -35 -76 hvcurveto
            -8 vlineto
            -44 18 -29 33 -15 vhcurveto
            -4 vlineto
            -34 -15 -17 -30 -42 vvcurveto
            -12 vlineto
            -79 45 -35 84 vhcurveto
            76 hlineto
            50 76 15 107 hvcurveto
            1 vlineto
            -1 8 8 -1 9 hhcurveto
            70 hlineto
            493 callsubr
            return
          </CharString>
          <CharString index="307">
            0 -30 -15 -53 -44 vhcurveto
            -72 -60 rlineto
            -4 -4 -1 -2 -4 285 callgsubr
            35 hlineto
            8 7 5 5 5 hvcurveto
            return
          </CharString>
          <CharString index="308">
            -5 187 callsubr
            return
          </CharString>
          <CharString index="309">
            hlineto
            -9 420 callgsubr
            9 vhcurveto
            return
          </CharString>
          <CharString index="310">
            rmoveto
            166 callgsubr
            -14 hvcurveto
            -4 return
          </CharString>
          <CharString index="311">
            -64 20 callgsubr
            return
          </CharString>
          <CharString index="312">
            vvcurveto
            13 vlineto
            9 -4 4 -8 214 callsubr
            -9 hvcurveto
            -12 vlineto
            -65 -34 -34 -63 vhcurveto
            -82 563 callgsubr
            64 hvcurveto
            52 150 callgsubr
            145 240 callsubr
            16 hvcurveto
            115 48 callgsubr
            return
          </CharString>
          <CharString index="313">
            vlineto
            -75 43 -35 84 vhcurveto
            60 hlineto
            52 21 return
          </CharString>
          <CharString index="314">
            -97 rlineto
            -5 2 4 -1 6 hhcurveto
            24 hlineto
            return
          </CharString>
          <CharString index="315">
            14 15 22 9 29 hhcurveto
            -22 callsubr
            return
          </CharString>
          <CharString index="316">
            97 callgsubr
            43 31 -21 -56 hvcurveto
            return
          </CharString>
          <CharString index="317">
            18 callsubr
            2 -4 7 hhcurveto
            19 hlineto
            7 return
          </CharString>
          <CharString index="318">
            -9 3 -3 7 vhcurveto
            30 286 callsubr
            96 vlineto
            9 -4 2 -6 vhcurveto
            return
          </CharString>
          <CharString index="319">
            -4 3 -7 425 callgsubr
            return
          </CharString>
          <CharString index="320">
            4 270 callgsubr
            return
          </CharString>
          <CharString index="321">
            vhcurveto
            257 callgsubr
            return
          </CharString>
          <CharString index="322">
            254 callgsubr
            5 return
          </CharString>
          <CharString index="323">
            vvcurveto
            93 -47 38 -87 -92 -44 -38 -91 -81 46 -45 53 -34 vhcurveto
            -132 -82 rlineto
            -5 -3 -2 -3 -3 vvcurveto
            -3 1 -2 2 -3 vhcurveto
            15 -17 rlineto
            -3 3 3 -2 4 hhcurveto
            3 4 2 2 3 hvcurveto
            142 90 return
          </CharString>
          <CharString index="324">
            443 callsubr
            -2 551 callsubr
            31 574 callsubr
            return
          </CharString>
          <CharString index="325">
            419 callsubr
            18 3 15 5 13 vhcurveto
            220 -225 rlineto
            -23 -16 -27 -12 -37 hhcurveto
            return
          </CharString>
          <CharString index="326">
            407 callgsubr
            -9 return
          </CharString>
          <CharString index="327">
            -107 callgsubr
            110 163 callsubr
            return
          </CharString>
          <CharString index="328">
            385 callgsubr
            -52 18 -33 45 -16 vhcurveto
            -4 vlineto
            return
          </CharString>
          <CharString index="329">
            168 callgsubr
            80 20 vlineto
            return
          </CharString>
          <CharString index="330">
            -16 callsubr
            endchar
          </CharString>
          <CharString index="331">
            239 callgsubr
            4 return
          </CharString>
          <CharString index="332">
            hhcurveto
            -44 hlineto
            -7 -4 -5 -6 6 hvcurveto
            89 459 callsubr
            5 444 callgsubr
            1 4 8 return
          </CharString>
          <CharString index="333">
            vlineto
            6 2 293 callsubr
            return
          </CharString>
          <CharString index="334">
            -84 callgsubr
            99 vlineto
            6 2 return
          </CharString>
          <CharString index="335">
            -63 -40 -35 -63 vhcurveto
            return
          </CharString>
          <CharString index="336">
            588 callgsubr
            54 97 53 230 callgsubr
          </CharString>
          <CharString index="337">
            236 callsubr
            42 -106 callsubr
            -241 -88 callsubr
            110 407 callsubr
            -10 -28 -41 vvcurveto
            return
          </CharString>
          <CharString index="338">
            -101 334 628 rmoveto
            9 3 -2 6 -9 hhcurveto
            -27 hlineto
            -9 -4 -4 -9 -3 hvcurveto
            -14 -35 -193 -546 -13 -35 rrcurveto
            -10 -4 5 -4 8 hhcurveto
            27 hlineto
            7 5 3 10 4 hvcurveto
            endchar
          </CharString>
          <CharString index="339">
            111 callgsubr
            44 -33 80 vhcurveto
            return
          </CharString>
          <CharString index="340">
            -96 callsubr
            -123 -13 callsubr
            -113 hlineto
            return
          </CharString>
          <CharString index="341">
            199 callgsubr
            225 vlineto
            6 2 3 return
          </CharString>
          <CharString index="342">
            4 6 5 -1 3 337 callgsubr
            return
          </CharString>
          <CharString index="343">
            vlineto
            57 23 28 54 vhcurveto
            return
          </CharString>
          <CharString index="344">
            hlineto
            -54 -28 29 54 hvcurveto
            return
          </CharString>
          <CharString index="345">
            -86 366 callsubr
            return
          </CharString>
          <CharString index="346">
            23 -26 -60 hvcurveto
            return
          </CharString>
          <CharString index="347">
            hlineto
            14 11 9 return
          </CharString>
          <CharString index="348">
            217 callgsubr
            64 vhcurveto
            49 4 callgsubr
            -54 hlineto
            return
          </CharString>
          <CharString index="349">
            vlineto
            539 callgsubr
            -48 hlineto
            -15 -7 -4 -10 -13 hvcurveto
            -182 -141 rlineto
            297 vlineto
            6 2 3 8 vhcurveto
            344 -106 callsubr
            endchar
          </CharString>
          <CharString index="350">
            362 callgsubr
            -32 284 callsubr
            return
          </CharString>
          <CharString index="351">
            417 callsubr
            540 callgsubr
            return
          </CharString>
          <CharString index="352">
            vlineto
            -8 305 callsubr
            8 hvcurveto
            return
          </CharString>
          <CharString index="353">
            115 callgsubr
            62 -90 return
          </CharString>
          <CharString index="354">
            4 vlineto
            29 15 11 23 45 vvcurveto
            63 vlineto
            6 return
          </CharString>
          <CharString index="355">
            18 vvcurveto
            35 18 23 41 vhcurveto
            return
          </CharString>
          <CharString index="356">
            -104 hlineto
            -61 -31 27 63 hvcurveto
            38 -35 callsubr
            32 236 callsubr
            return
          </CharString>
          <CharString index="357">
            -42 203 callgsubr
            41 vlineto
            return
          </CharString>
          <CharString index="358">
            36 90 hvcurveto
            15 415 callsubr
            return
          </CharString>
          <CharString index="359">
            hlineto
            86 54 54 88 hvcurveto
            return
          </CharString>
          <CharString index="360">
            vlineto
            133 callsubr
            return
          </CharString>
          <CharString index="361">
            -107 callgsubr
            71 -92 callgsubr
            -382 vlineto
            -71 callsubr
            4 8 vhcurveto
            return
          </CharString>
          <CharString index="362">
            273 callgsubr
            -8 7 rlineto
            4 -5 -2 1 -3 hhcurveto
            -5 -5 -4 return
          </CharString>
          <CharString index="363">
            -7 183 callsubr
            return
          </CharString>
          <CharString index="364">
            -26 -21 -60 vhcurveto
            return
          </CharString>
          <CharString index="365">
            79 callgsubr
            216 167 rlineto
            -166 vlineto
            -9 4 -3 7 vhcurveto
            26 -23 callgsubr
            return
          </CharString>
          <CharString index="366">
            -82 callsubr
            -85 47 -53 85 vhcurveto
            return
          </CharString>
          <CharString index="367">
            532 callgsubr
            7 -22 hvcurveto
            -10 4 6 -5 9 hhcurveto
            20 hlineto
            7 3 4 167 callsubr
            return
          </CharString>
          <CharString index="368">
            -107 callgsubr
            330 -96 callsubr
            -118 -13 callsubr
            -119 hlineto
            249 callgsubr
            -120 vlineto
            return
          </CharString>
          <CharString index="369">
            -115 vlineto
            -89 55 -54 582 callsubr
            56 54 87 hvcurveto
            73 callsubr
            return
          </CharString>
          <CharString index="370">
            74 callgsubr
            181 hlineto
            return
          </CharString>
          <CharString index="371">
            hvcurveto
            -43 122 callsubr
            return
          </CharString>
          <CharString index="372">
            229 -98 callsubr
            return
          </CharString>
          <CharString index="373">
            -8 -4 -4 -7 hvcurveto
            -19 457 callgsubr
            return
          </CharString>
          <CharString index="374">
            -69 -23 36 62 62 23 35 69 69 23 -35 -62 return
          </CharString>
          <CharString index="375">
            4 329 callgsubr
            return
          </CharString>
          <CharString index="376">
            hlineto
            63 24 -26 -60 hvcurveto
            return
          </CharString>
          <CharString index="377">
            -9 4 -2 7 vhcurveto
            return
          </CharString>
          <CharString index="378">
            -86 56 -43 83 vhcurveto
            98 -4 hlineto
            0 -22 -12 -45 -35 vhcurveto
            -92 -72 271 callgsubr
            -2 -4 553 callgsubr
            30 hlineto
            10 7 4 5 5 hvcurveto
            2 2 return
          </CharString>
          <CharString index="379">
            vhcurveto
            -17 hlineto
            -6 -3 556 callsubr
            -17 -21 -46 vhcurveto
            -5 hlineto
            -43 -17 20 57 395 callsubr
            -18 hlineto
            -6 -4 -2 -8 hvcurveto
            endchar
          </CharString>
          <CharString index="380">
            131 callgsubr
            -39 hlineto
            return
          </CharString>
          <CharString index="381">
            332 callgsubr
            448 callgsubr
            56 -52 86 vhcurveto
            return
          </CharString>
          <CharString index="382">
            300 callgsubr
            58 hlineto
            49 40 -21 -73 hvcurveto
            return
          </CharString>
          <CharString index="383">
            418 callgsubr
            5 vhcurveto
            14 hlineto
            6 3 2 8 hvcurveto
            41 vlineto
            return
          </CharString>
          <CharString index="384">
            -43 243 callsubr
            -186 vlineto
            -7 4 -2 return
          </CharString>
          <CharString index="385">
            hhcurveto
            28 hlineto
            7 4 return
          </CharString>
          <CharString index="386">
            287 callsubr
            -2 return
          </CharString>
          <CharString index="387">
            vhcurveto
            -50 hlineto
            -87 -54 -53 -88 -1 hvcurveto
            -106 vlineto
            -72 callgsubr
            return
          </CharString>
          <CharString index="388">
            -34 -37 -63 vhcurveto
            -64 hlineto
            -63 -35 37 64 hvcurveto
            60 vlineto
            9 -4 4 -7 vhcurveto
            -25 550 callsubr
            -61 vlineto
            -89 55 -55 88 vhcurveto
            69 hlineto
            89 54 return
          </CharString>
          <CharString index="389">
            rmoveto
            -101 callgsubr
            return
          </CharString>
          <CharString index="390">
            rmoveto
            -8 -7 -3 -8 -3 hvcurveto
            -64 -106 rlineto
            -8 -3 381 callsubr
          </CharString>
          <CharString index="391">
            hlineto
            -6 183 callsubr
            return
          </CharString>
          <CharString index="392">
            hlineto
            295 callgsubr
            return
          </CharString>
          <CharString index="393">
            hlineto
            310 callsubr
            return
          </CharString>
          <CharString index="394">
            -4 -5 -3 1 return
          </CharString>
          <CharString index="395">
            hlineto
            59 callsubr
            return
          </CharString>
          <CharString index="396">
            hhcurveto
            37 hlineto
            47 35 14 32 16 hvcurveto
            4 -126 hlineto
            -9 5 435 callgsubr
            return
          </CharString>
          <CharString index="397">
            -497 623 vmoveto
            83 vlineto
            56 33 22 45 vhcurveto
            23 hlineto
            9 4 4 7 hvcurveto
            -73 callsubr
            -4 4 -9 vhcurveto
            -27 hlineto
            -77 -45 -41 -77 hvcurveto
            -84 vlineto
            return
          </CharString>
          <CharString index="398">
            319 callgsubr
            -45 hlineto
            -7 -3 226 callgsubr
            20 hlineto
            7 406 callsubr
          </CharString>
          <CharString index="399">
            hhcurveto
            -23 hlineto
            -8 -1 -5 -6 4 hvcurveto
            63 -109 rlineto
            -7 5 6 -2 9 hhcurveto
            return
          </CharString>
          <CharString index="400">
            -25 callsubr
            204 -92 callgsubr
            return
          </CharString>
          <CharString index="401">
            28 -23 callgsubr
            return
          </CharString>
          <CharString index="402">
            -33 34 64 hvcurveto
            return
          </CharString>
          <CharString index="403">
            -89 callsubr
            339 518 callsubr
            -136 hlineto
            -82 -46 return
          </CharString>
          <CharString index="404">
            35 -35 -64 hvcurveto
            return
          </CharString>
          <CharString index="405">
            5 320 callgsubr
            235 callsubr
            return
          </CharString>
          <CharString index="406">
            436 callsubr
            422 callgsubr
            return
          </CharString>
          <CharString index="407">
            453 callgsubr
            -8 376 callgsubr
            return
          </CharString>
          <CharString index="408">
            vlineto
            429 callsubr
            23 hlineto
            8 -95 callgsubr
            return
          </CharString>
          <CharString index="409">
            -31 -18 -14 -34 -44 vvcurveto
            -45 358 callsubr
            return
          </CharString>
          <CharString index="410">
            rmoveto
            -9 4 -3 7 vhcurveto
            26 -23 callgsubr
            return
          </CharString>
          <CharString index="411">
            7 hvcurveto
            23 131 callgsubr
            return
          </CharString>
          <CharString index="412">
            426 callgsubr
            7 4 4 return
          </CharString>
          <CharString index="413">
            503 callgsubr
            -9 hvcurveto
            return
          </CharString>
          <CharString index="414">
            -4 hlineto
            -27 506 callsubr
            return
          </CharString>
          <CharString index="415">
            5 hvcurveto
            94 128 rlineto
            5 hlineto
            return
          </CharString>
          <CharString index="416">
            vlineto
            64 34 35 63 vhcurveto
            return
          </CharString>
          <CharString index="417">
            6 -95 callgsubr
            return
          </CharString>
          <CharString index="418">
            287 callsubr
            -3 return
          </CharString>
          <CharString index="419">
            -96 callsubr
            -159 43 callgsubr
            -32 hlineto
            39 -9 -29 23 -56 hhcurveto
            -115 hlineto
            -64 -33 -40 -56 -21 5 -26 return
          </CharString>
          <CharString index="420">
            433 callsubr
            5 hvcurveto
            89 149 callsubr
            return
          </CharString>
          <CharString index="421">
            33 -36 -63 hvcurveto
            return
          </CharString>
          <CharString index="422">
            -106 vlineto
            -75 callgsubr
            return
          </CharString>
          <CharString index="423">
            168 rmoveto
            326 callgsubr
            32 557 callsubr
            37 476 callgsubr
          </CharString>
          <CharString index="424">
            -74 31 -33 63 vhcurveto
            11 486 callsubr
            -4 2 return
          </CharString>
          <CharString index="425">
            429 callsubr
            25 hlineto
            return
          </CharString>
          <CharString index="426">
            224 callsubr
            3 return
          </CharString>
          <CharString index="427">
            -86 55 -53 84 vhcurveto
            return
          </CharString>
          <CharString index="428">
            -16 -15 7 -23 24 hhcurveto
            13 hlineto
            40 13 -8 -25 hvcurveto
            -2 vlineto
            -22 -14 -10 -39 vhcurveto
            -20 hlineto
            -8 -3 -3 -7 hvcurveto
            -13 vlineto
            -6 return
          </CharString>
          <CharString index="429">
            -4 hlineto
            58 callsubr
            return
          </CharString>
          <CharString index="430">
            -97 -53 97 rlineto
            5 -3 -3 1 -7 hhcurveto
            -23 297 callgsubr
          </CharString>
          <CharString index="431">
            4 3 2 5 2 vhcurveto
            25 84 rlineto
            8 24 3 15 18 vvcurveto
            endchar
          </CharString>
          <CharString index="432">
            -5 -9 -16 hhcurveto
            -24 -6 13 40 hvcurveto
            33 vlineto
            7 return
          </CharString>
          <CharString index="433">
            53 42 94 hvcurveto
            76 356 callsubr
            return
          </CharString>
          <CharString index="434">
            58 32 24 28 15 495 callgsubr
            return
          </CharString>
          <CharString index="435">
            hlineto
            -7 140 callsubr
            return
          </CharString>
          <CharString index="436">
            rmoveto
            -86 callsubr
            return
          </CharString>
          <CharString index="437">
            vlineto
            74 -45 33 -81 vhcurveto
            return
          </CharString>
          <CharString index="438">
            -8 callsubr
            -74 -39 42 71 hvcurveto
            91 20 vlineto
            79 50 37 89 hvcurveto
            15 vlineto
            41 -12 30 146 callgsubr
            return
          </CharString>
          <CharString index="439">
            rmoveto
            -63 -40 35 63 hvcurveto
            224 vlineto
            63 40 35 63 vhcurveto
            66 hlineto
            62 314 callsubr
            -222 vlineto
            -63 -33 -36 -62 vhcurveto
            return
          </CharString>
          <CharString index="440">
            rmoveto
            22 hlineto
            9 369 callsubr
            return
          </CharString>
          <CharString index="441">
            vlineto
            43 227 callgsubr
            return
          </CharString>
          <CharString index="442">
            vlineto
            41 -11 30 -25 14 vhcurveto
            4 186 vlineto
            -80 callgsubr
            return
          </CharString>
          <CharString index="443">
            vvcurveto
            352 callsubr
            return
          </CharString>
          <CharString index="444">
            9 431 callsubr
            return
          </CharString>
          <CharString index="445">
            -29 -26 -55 vhcurveto
            return
          </CharString>
          <CharString index="446">
            rmoveto
            -64 -32 -31 -63 vhcurveto
            -7 hlineto
            -63 -32 31 64 hvcurveto
            125 vlineto
            64 32 31 63 vhcurveto
            7 hlineto
            63 32 -31 -64 hvcurveto
            return
          </CharString>
          <CharString index="447">
            rmoveto
            9 -4 2 -6 vhcurveto
            -36 hlineto
            -7 -3 -2 -9 hvcurveto
            -119 558 callsubr
            36 286 callsubr
            return
          </CharString>
          <CharString index="448">
            -106 callsubr
            -497 -88 callsubr
            return
          </CharString>
          <CharString index="449">
            vlineto
            -60 361 callgsubr
            return
          </CharString>
          <CharString index="450">
            375 callsubr
            253 vlineto
            6 return
          </CharString>
          <CharString index="451">
            -78 callsubr
            -23 vlineto
            -7 3 -4 return
          </CharString>
          <CharString index="452">
            vlineto
            8 -4 4 return
          </CharString>
          <CharString index="453">
            rmoveto
            59 17 -23 -59 hvcurveto
            -57 355 callsubr
            -17 24 59 hvcurveto
            57 vlineto
            59 17 23 59 vhcurveto
            return
          </CharString>
          <CharString index="454">
            -35 -63 vhcurveto
            -46 hlineto
            -9 165 callgsubr
            -21 20 callsubr
            50 461 callgsubr
            88 hvcurveto
            106 vlineto
            88 return
          </CharString>
          <CharString index="455">
            vlineto
            56 33 21 45 vhcurveto
            24 hlineto
            9 3 17 callsubr
            18 161 callgsubr
            -28 hlineto
            -77 -45 -41 -77 hvcurveto
            return
          </CharString>
          <CharString index="456">
            8 431 callsubr
            -35 175 callsubr
            -120 553 callsubr
            35 554 callsubr
            return
          </CharString>
          <CharString index="457">
            hlineto
            371 callsubr
            return
          </CharString>
          <CharString index="458">
            vhcurveto
            25 hlineto
            8 35 callgsubr
            3 7 vhcurveto
            return
          </CharString>
          <CharString index="459">
            363 callgsubr
            vhcurveto
            485 callgsubr
            return
          </CharString>
          <CharString index="460">
            -98 callsubr
            73 hlineto
            return
          </CharString>
          <CharString index="461">
            -4 7 189 callsubr
            return
          </CharString>
          <CharString index="462">
            vlineto
            -59 -17 -24 -59 vhcurveto
            -18 hlineto
            -59 return
          </CharString>
          <CharString index="463">
            vlineto
            43 155 callsubr
            return
          </CharString>
          <CharString index="464">
            hhcurveto
            20 hlineto
            7 3 4 6 return
          </CharString>
          <CharString index="465">
            vlineto
            -88 55 -52 86 vhcurveto
            return
          </CharString>
          <CharString index="466">
            -102 callsubr
            -8 return
          </CharString>
          <CharString index="467">
            -4 447 callgsubr
            return
          </CharString>
          <CharString index="468">
            41 70 hvcurveto
            61 85 vlineto
            return
          </CharString>
          <CharString index="469">
            9 2 4 7 hvcurveto
            return
          </CharString>
          <CharString index="470">
            3 -7 vhcurveto
            -29 hlineto
            return
          </CharString>
          <CharString index="471">
            61 189 373 rmoveto
            -42 26 -33 35 60 vvcurveto
            66 26 22 62 63 23 -22 -66 -49 -22 -46 -59 -38 vhcurveto
            return
          </CharString>
          <CharString index="472">
            513 callsubr
            8 3 17 callsubr
            34 162 callgsubr
            return
          </CharString>
          <CharString index="473">
            -54 -54 -88 hvcurveto
            return
          </CharString>
          <CharString index="474">
            10 10 15 hvcurveto
            return
          </CharString>
          <CharString index="475">
            -64 -33 -40 -55 return
          </CharString>
          <CharString index="476">
            153 callsubr
            -1 5 -8 hhcurveto
            -23 hlineto
            -7 -3 -1 -5 -3 hvcurveto
            -53 -97 return
          </CharString>
          <CharString index="477">
            236 callgsubr
            -58 vhcurveto
            -62 301 callgsubr
            return
          </CharString>
          <CharString index="478">
            -91 59 -65 442 callgsubr
            return
          </CharString>
          <CharString index="479">
            19 384 callgsubr
            4 -9 vhcurveto
            return
          </CharString>
          <CharString index="480">
            hvcurveto
            -4 hlineto
            328 callgsubr
            -84 -55 -45 -96 hvcurveto
            return
          </CharString>
          <CharString index="481">
            -4 -7 vhcurveto
            -228 return
          </CharString>
          <CharString index="482">
            -33 34 63 hvcurveto
            return
          </CharString>
          <CharString index="483">
            32 36 62 vhcurveto
            return
          </CharString>
          <CharString index="484">
            2 -86 callgsubr
            return
          </CharString>
          <CharString index="485">
            rmoveto
            -74 -39 42 71 hvcurveto
            91 20 vlineto
            79 1 50 35 90 vvcurveto
            15 vlineto
            41 -12 30 146 callgsubr
            return
          </CharString>
          <CharString index="486">
            -7 vhcurveto
            -314 110 callsubr
            return
          </CharString>
          <CharString index="487">
            438 callgsubr
            218 -222 rlineto
            return
          </CharString>
          <CharString index="488">
            1 -4 7 hhcurveto
            20 hlineto
            6 6 159 callsubr
            -7 hhcurveto
            endchar
          </CharString>
          <CharString index="489">
            rlineto
            -2 533 callgsubr
            return
          </CharString>
          <CharString index="490">
            -21 -60 vhcurveto
            -51 hlineto
            -9 165 callgsubr
            return
          </CharString>
          <CharString index="491">
            18 vhcurveto
            4 vlineto
            34 18 17 35 53 vvcurveto
            return
          </CharString>
          <CharString index="492">
            343 callsubr
            2 3 return
          </CharString>
          <CharString index="493">
            -76 callsubr
            endchar
          </CharString>
          <CharString index="494">
            hlineto
            62 33 -34 -62 hvcurveto
            return
          </CharString>
          <CharString index="495">
            -21 -73 hvcurveto
            -72 vlineto
            -71 return
          </CharString>
          <CharString index="496">
            563 callgsubr
            63 hvcurveto
            return
          </CharString>
          <CharString index="497">
            30 286 callgsubr
            -338 vlineto
            -66 -41 -46 -74 vhcurveto
            -119 hlineto
            -73 -37 41 70 hvcurveto
            return
          </CharString>
          <CharString index="498">
            30 17 43 hvcurveto
            12 vlineto
            45 -28 16 -50 vhcurveto
            4 vlineto
            return
          </CharString>
          <CharString index="499">
            hvcurveto
            3 3 273 callgsubr
            return
          </CharString>
          <CharString index="500">
            -5 -4 439 callgsubr
            return
          </CharString>
          <CharString index="501">
            hvcurveto
            171 callgsubr
            return
          </CharString>
          <CharString index="502">
            hvcurveto
            11 vlineto
            8 -3 2 -6 vhcurveto
            return
          </CharString>
          <CharString index="503">
            hlineto
            9 3 17 callsubr
            21 vlineto
            return
          </CharString>
          <CharString index="504">
            hlineto
            6 -1 2 -3 -5 vvcurveto
            return
          </CharString>
          <CharString index="505">
            -87 54 -56 88 vhcurveto
            return
          </CharString>
          <CharString index="506">
            rlineto
            -9 2 4 -3 return
          </CharString>
          <CharString index="507">
            -46 -34 -75 hvcurveto
            return
          </CharString>
          <CharString index="508">
            hlineto
            581 callsubr
            -22 197 callgsubr
            102 -4 hlineto
            -26 -19 -10 -31 -41 vvcurveto
            return
          </CharString>
          <CharString index="509">
            -108 433 callgsubr
            return
          </CharString>
          <CharString index="510">
            hlineto
            -86 -55 573 callsubr
            55 -54 86 vhcurveto
            4 45 rmoveto
            537 callgsubr
            return
          </CharString>
          <CharString index="511">
            -322 110 callsubr
            return
          </CharString>
          <CharString index="512">
            48 callgsubr
            75 -106 callsubr
            endchar
          </CharString>
          <CharString index="513">
            2 4 8 -4 hvcurveto
            endchar
          </CharString>
          <CharString index="514">
            -4 hlineto
            -26 -14 return
          </CharString>
          <CharString index="515">
            rlineto
            -20 -15 7 -20 33 hhcurveto
            40 34 10 13 10 -5 3 -23 hvcurveto
            -38 hlineto
            52 70 rlineto
            return
          </CharString>
          <CharString index="516">
            -34 27 71 240 callgsubr
            71 32 27 61 59 33 105 callsubr
            -8 4 -4 return
          </CharString>
          <CharString index="517">
            vlineto
            -9 4 -3 7 vhcurveto
            26 -23 callgsubr
            560 vlineto
            6 2 3 8 vhcurveto
            return
          </CharString>
          <CharString index="518">
            -9 4 -3 8 vhcurveto
            23 hlineto
            8 -95 callgsubr
            return
          </CharString>
          <CharString index="519">
            -3 -1 -4 -2 551 callsubr
            28 hlineto
            return
          </CharString>
          <CharString index="520">
            6 vhcurveto
            30 hlineto
            10 7 5 4 5 hvcurveto
            2 2 return
          </CharString>
          <CharString index="521">
            50 491 callgsubr
            2 3 8 vhcurveto
            return
          </CharString>
          <CharString index="522">
            vlineto
            41 -12 30 146 callgsubr
            368 callgsubr
            return
          </CharString>
          <CharString index="523">
            -68 -26 383 callsubr
            return
          </CharString>
          <CharString index="524">
            hlineto
            49 40 388 callsubr
            return
          </CharString>
          <CharString index="525">
            -96 callsubr
            -100 vlineto
            -6 return
          </CharString>
          <CharString index="526">
            rmoveto
            344 callgsubr
            return
          </CharString>
          <CharString index="527">
            rlineto
            9 -2 503 callsubr
            return
          </CharString>
          <CharString index="528">
            -92 callgsubr
            -123 vlineto
            return
          </CharString>
          <CharString index="529">
            -50 -43 -89 hvcurveto
            -42 vlineto
            -9 4 -3 return
          </CharString>
          <CharString index="530">
            hlineto
            8 479 callgsubr
            return
          </CharString>
          <CharString index="531">
            hlineto
            14 11 10 16 hvcurveto
            return
          </CharString>
          <CharString index="532">
            vlineto
            430 callgsubr
            return
          </CharString>
          <CharString index="533">
            3 -3 7 vhcurveto
            30 hlineto
            return
          </CharString>
          <CharString index="534">
            vlineto
            7 -4 4 -8 vhcurveto
            return
          </CharString>
          <CharString index="535">
            vlineto
            -6 -3 -4 -7 vhcurveto
            return
          </CharString>
          <CharString index="536">
            -9 5 -3 7 vhcurveto
            return
          </CharString>
          <CharString index="537">
            63 239 callsubr
            return
          </CharString>
          <CharString index="538">
            -3 3 -7 vhcurveto
            return
          </CharString>
          <CharString index="539">
            rlineto
            -3 -4 -1 -2 -3 551 callsubr
            29 hlineto
            9 5 4 5 6 hvcurveto
            return
          </CharString>
          <CharString index="540">
            40 callgsubr
            2 487 callsubr
            return
          </CharString>
          <CharString index="541">
            271 callgsubr
            -4 -2 285 callgsubr
            28 hlineto
            8 5 3 7 6 hvcurveto
            return
          </CharString>
          <CharString index="542">
            187 callgsubr
            -4 hlineto
            328 callgsubr
            return
          </CharString>
          <CharString index="543">
            hlineto
            9 3 5 return
          </CharString>
          <CharString index="544">
            -236 356 294 rmoveto
            9 3 4 8 170 callgsubr
            return
          </CharString>
          <CharString index="545">
            259 127 callgsubr
            return
          </CharString>
          <CharString index="546">
            8 599 callsubr
            return
          </CharString>
          <CharString index="547">
            395 callgsubr
            -64 -33 -40 return
          </CharString>
          <CharString index="548">
            -5 7 423 callgsubr
            return
          </CharString>
          <CharString index="549">
            -22 -18 -44 hhcurveto
            -41 hlineto
            -62 375 callsubr
            return
          </CharString>
          <CharString index="550">
            -16 -39 -37 vhcurveto
            -60 -53 271 callgsubr
            -3 return
          </CharString>
          <CharString index="551">
            -9 501 callgsubr
            return
          </CharString>
          <CharString index="552">
            -81 400 callsubr
            -8 vlineto
            return
          </CharString>
          <CharString index="553">
            507 callgsubr
            7 return
          </CharString>
          <CharString index="554">
            -87 52 -56 89 vhcurveto
            return
          </CharString>
          <CharString index="555">
            hlineto
            -7 229 callgsubr
            -1 1 578 callgsubr
            38 -77 hhcurveto
            return
          </CharString>
          <CharString index="556">
            294 360 callgsubr
            -273 vlineto
            -9 4 -3 8 vhcurveto
            25 hlineto
            return
          </CharString>
          <CharString index="557">
            hvcurveto
            19 510 callsubr
            endchar
          </CharString>
          <CharString index="558">
            vhcurveto
            -54 hlineto
            -75 -35 37 83 hvcurveto
            return
          </CharString>
          <CharString index="559">
            124 190 callgsubr
            return
          </CharString>
          <CharString index="560">
            -88 56 -66 99 vhcurveto
            124 hlineto
            return
          </CharString>
          <CharString index="561">
            hvcurveto
            -21 -76 callsubr
            return
          </CharString>
          <CharString index="562">
            hlineto
            52 42 19 35 17 hvcurveto
            4 return
          </CharString>
          <CharString index="563">
            hlineto
            -8 -4 -4 -10 hvcurveto
            return
          </CharString>
          <CharString index="564">
            hlineto
            362 callsubr
            return
          </CharString>
          <CharString index="565">
            vlineto
            375 callgsubr
            return
          </CharString>
          <CharString index="566">
            -109 rlineto
            -6 return
          </CharString>
          <CharString index="567">
            vlineto
            -6 -2 -3 return
          </CharString>
          <CharString index="568">
            vhcurveto
            -204 hlineto
            return
          </CharString>
          <CharString index="569">
            488 callgsubr
            -6 5 5 -5 7 hhcurveto
            29 hlineto
            return
          </CharString>
          <CharString index="570">
            -89 callsubr
            331 hlineto
            return
          </CharString>
          <CharString index="571">
            vhcurveto
            81 -106 callsubr
            endchar
          </CharString>
          <CharString index="572" raw="1">
            1ea20693 2c1df701 0b 
          </CharString>
          <CharString index="573">
            583 callsubr
            4 return
          </CharString>
          <CharString index="574">
            18 -32 45 -16 vhcurveto
            return
          </CharString>
          <CharString index="575">
            109 rlineto
            7 5 return
          </CharString>
          <CharString index="576">
            -8 165 callgsubr
            return
          </CharString>
          <CharString index="577">
            -45 hhcurveto
            -55 -41 return
          </CharString>
          <CharString index="578">
            4 4 6 4 554 callgsubr
            18 -5 17 19 vvcurveto
            34 return
          </CharString>
          <CharString index="579">
            vhcurveto
            113 callsubr
            return
          </CharString>
          <CharString index="580">
            53 -87 vhcurveto
            -35 hlineto
            -48 594 callsubr
            return
          </CharString>
          <CharString index="581">
            -350 511 callsubr
            return
          </CharString>
          <CharString index="582">
            182 callsubr
            endchar
          </CharString>
          <CharString index="583">
            hlineto
            31 callgsubr
            endchar
          </CharString>
          <CharString index="584">
            -20 -34 -55 vvcurveto
            return
          </CharString>
          <CharString index="585">
            rlineto
            7 24 4 return
          </CharString>
          <CharString index="586">
            375 rmoveto
            9 3 4 8 -24 callsubr
            return
          </CharString>
          <CharString index="587">
            145 callgsubr
            158 197 callsubr
            -8 hlineto
            return
          </CharString>
          <CharString index="588">
            -98 callsubr
            447 return
          </CharString>
          <CharString index="589">
            -86 callsubr
            560 vlineto
            6 2 3 8 vhcurveto
            84 hlineto
            return
          </CharString>
          <CharString index="590">
            392 callgsubr
            18 3 return
          </CharString>
          <CharString index="591">
            -8 hvcurveto
            -34 552 callgsubr
            return
          </CharString>
          <CharString index="592">
            172 callsubr
            87 vlineto
            74 return
          </CharString>
          <CharString index="593">
            hlineto
            63 32 33 74 hvcurveto
            11 vlineto
            8 return
          </CharString>
          <CharString index="594">
            -4 7 hhcurveto
            20 hlineto
            6 6 3 6 return
          </CharString>
          <CharString index="595">
            -1 3 -2 8 hvcurveto
            -6 18 -4 17 return
          </CharString>
          <CharString index="596">
            692 319 callgsubr
            return
          </CharString>
          <CharString index="597">
            rmoveto
            536 callgsubr
            -30 16 hlineto
            return
          </CharString>
          <CharString index="598">
            hvcurveto
            87 vlineto
            74 33 23 59 return
          </CharString>
          <CharString index="599">
            rlineto
            8 -4 -5 3 -11 hhcurveto
            return
          </CharString>
          <CharString index="600">
            37 32 446 callgsubr
            return
          </CharString>
          <CharString index="601">
            604 callgsubr
            5 3 6 return
          </CharString>
          <CharString index="602">
            -23 callgsubr
            41 return
          </CharString>
          <CharString index="603">
            541 callgsubr
            110 hlineto
            return
          </CharString>
          <CharString index="604">
            459 callsubr
            -4 1 -5 return
          </CharString>
          <CharString index="605">
            rlineto
            9 2 -4 3 -7 hhcurveto
            return
          </CharString>
          <CharString index="606">
            hlineto
            533 callsubr
            return
          </CharString>
          <CharString index="607">
            31 hlineto
            7 4 4 8 return
          </CharString>
          <CharString index="608" raw="1">
            88921eaa 06920b  
          </CharString>
          <CharString index="609">
            hlineto
            81 431 callgsubr
            return
          </CharString>
          <CharString index="610">
            -4 3 -7 hhcurveto
            -31 hlineto
            return
          </CharString>
          <CharString index="611">
            -4 hlineto
            -31 -18 -14 return
          </CharString>
          <CharString index="612">
            60 34 33 61 vhcurveto
            return
          </CharString>
          <CharString index="613">
            -14 -9 -28 -41 vvcurveto
            return
          </CharString>
          <CharString index="614">
            vlineto
            -76 43 -32 return
          </CharString>
          <CharString index="615">
            20 callsubr
            359 hlineto
            10 2 17 callsubr
            return
          </CharString>
          <CharString index="616">
            469 callgsubr
            -9 3 6 -5 9 hhcurveto
            20 hlineto
            7 return
          </CharString>
          <CharString index="617">
            285 callsubr
            486 287 callgsubr
            return
          </CharString>
          <CharString index="618">
            rmoveto
            -62 385 callsubr
            8 vhcurveto
            return
          </CharString>
          <CharString index="619">
            175 callsubr
            -186 224 callsubr
            return
          </CharString>
          <CharString index="620">
            -7 -4 -3 484 callsubr
            30 hlineto
            return
          </CharString>
          <CharString index="621">
            8 vhcurveto
            24 hlineto
            return
          </CharString>
          <CharString index="622">
            vlineto
            -10 4 -3 return
          </CharString>
          <CharString index="623">
            hlineto
            -58 -24 18 50 hvcurveto
            4 vlineto
            51 24 18 61 vhcurveto
            return
          </CharString>
          <CharString index="624">
            vhcurveto
            -21 hlineto
            -7 236 callgsubr
            return
          </CharString>
          <CharString index="625">
            -92 callgsubr
            -92 98 callgsubr
            return
          </CharString>
          <CharString index="626">
            -4 -8 454 callsubr
            60 hlineto
            64 return
          </CharString>
          <CharString index="627">
            hlineto
            26 callgsubr
            -27 -21 -59 vhcurveto
            return
          </CharString>
          <CharString index="628">
            hvcurveto
            11 -183 rlineto
            -8 5 -5 7 vhcurveto
            5 hlineto
            7 return
          </CharString>
          <CharString index="629">
            -73 451 callsubr
            19 hlineto
            77 54 return
          </CharString>
          <CharString index="630">
            1 hvcurveto
            1 vlineto
            69 vlineto
            5 2 4 7 vhcurveto
            214 return
          </CharString>
          <CharString index="631">
            hlineto
            10 -95 callgsubr
            18 vlineto
            8 -3 5 -10 vhcurveto
            return
          </CharString>
          <CharString index="632">
            62 31 -28 -66 vhcurveto
            -72 vlineto
            -91 return
          </CharString>
          <CharString index="633">
            -94 callgsubr
            -350 vlineto
            -64 return
          </CharString>
          <CharString index="634">
            23 41 vhcurveto
            171 hlineto
            7 3 return
          </CharString>
          <CharString index="635">
            581 360 callgsubr
            return
          </CharString>
          <CharString index="636">
            612 rmoveto
            7 -3 4 -10 vhcurveto
            return
          </CharString>
          <CharString index="637">
            vhcurveto
            -29 hlineto
            31 callgsubr
            return
          </CharString>
          <CharString index="638">
            23 hvcurveto
            4 4 3 5 4 vvcurveto
            return
          </CharString>
          <CharString index="639">
            3 6 -3 7 hhcurveto
            20 hlineto
            7 return
          </CharString>
          <CharString index="640">
            10 3 17 callsubr
            return
          </CharString>
          <CharString index="641">
            0 vlineto
            0 vlineto
            0 return
          </CharString>
          <CharString index="642">
            vhcurveto
            134 hlineto
            8 return
          </CharString>
          <CharString index="643">
            8 585 callgsubr
            return
          </CharString>
          <CharString index="644">
            8 3 4 7 hvcurveto
            return
          </CharString>
          <CharString index="645">
            -57 -24 17 50 hvcurveto
            return
          </CharString>
          <CharString index="646">
            -28 24 55 hvcurveto
            return
          </CharString>
          <CharString index="647">
            -1 -5 -2 hvcurveto
            return
          </CharString>
          <CharString index="648">
            -120 hlineto
            -9 return
          </CharString>
          <CharString index="649">
            451 callsubr
            20 hlineto
            76 54 return
          </CharString>
          <CharString index="650">
            14 11 9 16 hvcurveto
            99 48 callgsubr
            return
          </CharString>
          <CharString index="651">
            -7 3 598 callgsubr
            return
          </CharString>
          <CharString index="652">
            hlineto
            -75 -36 37 83 hvcurveto
            20 hlineto
            77 54 30 86 return
          </CharString>
          <CharString index="653">
            -3 246 callgsubr
            return
          </CharString>
          <CharString index="654">
            -21 469 callgsubr
            -10 3 6 -4 9 hhcurveto
            return
          </CharString>
          <CharString index="655">
            vlineto
            -9 4 -3 7 vhcurveto
            endchar
          </CharString>
          <CharString index="656">
            -7 vhcurveto
            -26 hlineto
            -7 -4 return
          </CharString>
          <CharString index="657">
            hlineto
            -8 -4 -4 -9 hvcurveto
            return
          </CharString>
          <CharString index="658">
            585 callsubr
            6 vhcurveto
            return
          </CharString>
          <CharString index="659">
            hlineto
            537 callgsubr
            return
          </CharString>
          <CharString index="660">
            vlineto
            -8 4 -3 7 vhcurveto
            return
          </CharString>
          <CharString index="661">
            hlineto
            7 3 3 8 hvcurveto
            return
          </CharString>
          <CharString index="662">
            rmoveto
            270 callsubr
            return
          </CharString>
          <CharString index="663">
            -2 -8 hvcurveto
            -10 vlineto
            -56 return
          </CharString>
          <CharString index="664">
            hlineto
            8 366 callgsubr
            return
          </CharString>
          <CharString index="665">
            vlineto
            -9 3 -3 7 vhcurveto
            return
          </CharString>
          <CharString index="666">
            vlineto
            -6 -2 -4 -7 vhcurveto
            return
          </CharString>
          <CharString index="667">
            584 callsubr
            -8 hvcurveto
            return
          </CharString>
          <CharString index="668">
            -27 -21 -60 vhcurveto
            return
          </CharString>
          <CharString index="669">
            26 16 hvcurveto
            4 return
          </CharString>
          <CharString index="670">
            -18 vhcurveto
            -4 vlineto
            return
          </CharString>
          <CharString index="671">
            -23 -19 -58 vhcurveto
            return
          </CharString>
          <CharString index="672">
            319 callsubr
            2 5 1 vhcurveto
            return
          </CharString>
          <CharString index="673">
            -57 595 callsubr
            return
          </CharString>
          <CharString index="674">
            34 -25 -70 vhcurveto
            -89 552 callgsubr
            return
          </CharString>
          <CharString index="675">
            6 4 5 5 vvcurveto
            4 -1 3 -3 3 vhcurveto
            return
          </CharString>
          <CharString index="676">
            239 callgsubr
            3 3 2 5 2 vhcurveto
            return
          </CharString>
          <CharString index="677">
            489 callsubr
            -45 hlineto
            return
          </CharString>
          <CharString index="678" raw="1">
            fb1d0729 c662db1e 9e06940b 
          </CharString>
          <CharString index="679">
            6 -4 9 hhcurveto
            20 hlineto
            7 return
          </CharString>
          <CharString index="680">
            -54 -88 hvcurveto
            -359 vlineto
            -88 return
          </CharString>
          <CharString index="681">
            hlineto
            9 4 4 6 6 hvcurveto
            return
          </CharString>
          <CharString index="682">
            0 vlineto
            534 callsubr
            return
          </CharString>
          <CharString index="683">
            20 vlineto
            80 49 37 90 hvcurveto
            return
          </CharString>
          <CharString index="684">
            hlineto
            364 callgsubr
            60 return
          </CharString>
          <CharString index="685">
            hlineto
            368 callsubr
            -22 5 return
          </CharString>
          <CharString index="686">
            562 callgsubr
            1 return
          </CharString>
          <CharString index="687">
            -2 4 -3 9 hvcurveto
            return
          </CharString>
          <CharString index="688">
            -9 -4 -78 callsubr
            return
          </CharString>
          <CharString index="689">
            87 vhcurveto
            87 hlineto
            86 return
          </CharString>
          <CharString index="690">
            hhcurveto
            21 hlineto
            6 return
          </CharString>
          <CharString index="691">
            hlineto
            -6 -3 -2 return
          </CharString>
          <CharString index="692">
            vvcurveto
            -5 4 -4 return
          </CharString>
          <CharString index="693">
            hlineto
            9 3 3 return
          </CharString>
          <CharString index="694">
            97 rlineto
            5 -2 return
          </CharString>
          <CharString index="695">
            rlineto
            -3 -3 -2 return
          </CharString>
          <CharString index="696">
            19 23 41 vhcurveto
            return
          </CharString>
          <CharString index="697">
            -2 -3 -4 vvcurveto
            return
          </CharString>
          <CharString index="698">
            42 150 rlineto
            11 3 -3 5 -10 hhcurveto
            return
          </CharString>
          <CharString index="699">
            24 56 hvcurveto
            16 vlineto
            47 34 25 55 vhcurveto
            return
          </CharString>
          <CharString index="700">
            vhcurveto
            51 hlineto
            37 31 446 callgsubr
            return
          </CharString>
          <CharString index="701">
            -35 -17 -30 -14 hvcurveto
            -4 138 hlineto
            6 return
          </CharString>
          <CharString index="702">
            hvcurveto
            -56 88 callgsubr
            -37 vlineto
            return
          </CharString>
          <CharString index="703">
            -52 12 -26 47 27 17 8 49 16 vhcurveto
            return
          </CharString>
          <CharString index="704">
            hlineto
            -63 343 callsubr
            return
          </CharString>
          <CharString index="705">
            29 388 callgsubr
            -4 vlineto
            0 return
          </CharString>
          <CharString index="706">
            529 callgsubr
            -4 -5 return
          </CharString>
          <CharString index="707">
            hlineto
            -73 -37 361 callsubr
            81 return
          </CharString>
          <CharString index="708">
            6 4 -2 3 return
          </CharString>
          <CharString index="709">
            -9 hhcurveto
            -22 hlineto
            return
          </CharString>
          <CharString index="710" raw="1">
            70068487 0b  
          </CharString>
          <CharString index="711">
            hlineto
            -9 -2 -3 return
          </CharString>
        <CharString name=".notdef">
          254 176 hmoveto
          399 701 -399 hlineto
          59 -55 rmoveto
          281 -591 -281 hlineto
          endchar
        </CharString>
        <CharString name="A">
          36 -77 callsubr
          endchar
        </CharString>
        <CharString name="AE">
          276 373 589 rmoveto
          4 -370 -207 hlineto
          -128 -219 rmoveto
          7 4 3 9 5 hvcurveto
          89 160 rlineto
          230 -160 hlineto
          -9 4 -3 7 vhcurveto
          309 hlineto
          9 2 4 7 170 callsubr
          -260 328 callsubr
          242 48 callgsubr
          232 101 callgsubr
          -232 328 callsubr
          230 48 callgsubr
          260 hlineto
          9 2 4 7 170 callsubr
          -338 hlineto
          -8 -5 -3 -9 -5 hvcurveto
          -339 -619 rlineto
          -8 -3 2 -4 7 hhcurveto
          endchar
        </CharString>
        <CharString name="Aacute">
          35 -77 callsubr
          299 836 90 callsubr
        </CharString>
        <CharString name="Abreve">
          35 -77 callsubr
          129 826 rmoveto
          -12 vlineto
          317 callsubr
          -6 vhcurveto
          -17 hlineto
          -5 349 callgsubr
          -5 -4 -2 -8 hvcurveto
          endchar
        </CharString>
        <CharString name="Acircumflex">
          35 -77 callsubr
          260 827 rmoveto
          7 -5 -6 264 callgsubr
          24 hlineto
          6 4 1 5 2 hvcurveto
          53 97 54 207 callsubr
          7 345 callgsubr
        </CharString>
        <CharString name="Adieresis">
          35 -77 callsubr
          286 173 callsubr
        </CharString>
        <CharString name="Agrave">
          35 -77 callsubr
          177 825 319 callgsubr
          -44 hlineto
          -7 -4 226 callgsubr
          21 hlineto
          6 406 callsubr
        </CharString>
        <CharString name="Amacron">
          35 -77 callsubr
          331 752 rmoveto
          8 3 4 6 hvcurveto
          19 131 callgsubr
          -203 hlineto
          -88 callgsubr
          -6 -56 callsubr
          endchar
        </CharString>
        <CharString name="Aogonek">
          35 149 217 rmoveto
          115 371 rlineto
          4 hlineto
          116 -371 rlineto
          -80 414 rmoveto
          9 -3 -4 3 -7 hhcurveto
          -47 374 callgsubr
          565 callgsubr
          -619 rlineto
          -9 -3 3 -3 7 hhcurveto
          31 hlineto
          7 3 3 9 3 hvcurveto
          54 160 rlineto
          262 hlineto
          52 -154 -64 -84 408 callsubr
          26 hlineto
          7 2 3 9 -2 hvcurveto
          endchar
        </CharString>
        <CharString name="Aring">
          35 -77 callsubr
          222 722 rmoveto
          -31 -15 17 34 hvcurveto
          21 vlineto
          33 15 17 31 vhcurveto
          11 hlineto
          32 15 -17 -33 hvcurveto
          -21 vlineto
          -34 -15 -17 -32 vhcurveto
          4 -27 rmoveto
          46 28 26 47 hvcurveto
          31 vlineto
          47 -28 26 -46 vhcurveto
          -19 hlineto
          -47 -25 -26 -47 hvcurveto
          -31 vlineto
          -47 25 -26 47 vhcurveto
          endchar
        </CharString>
        <CharString name="Atilde">
          35 -77 callsubr
          242 759 rmoveto
          32 12 3 10 19 hhcurveto
          24 5 343 callgsubr
          6 vhcurveto
          14 hlineto
          5 3 2 8 hvcurveto
          41 vlineto
          51 -12 26 -47 -30 -12 -9 -40 -15 vhcurveto
          -40 -16 -5 -9 -16 434 callgsubr
          -39 vlineto
          596 callsubr
          endchar
        </CharString>
        <CharString name="B">
          49 85 12 rmoveto
          -9 4 -3 6 vhcurveto
          240 hlineto
          86 55 51 88 hvcurveto
          70 vlineto
          72 -47 42 -46 3 vhcurveto
          47 14 39 35 68 vvcurveto
          61 500 callgsubr
          -233 577 callsubr
          -283 rmoveto
          -7 229 callgsubr
          233 vlineto
          6 198 callsubr
          179 387 callsubr
          -59 vlineto
          -62 -36 -34 -62 vhcurveto
          -176 -304 rmoveto
          -7 229 callgsubr
          243 vlineto
          5 198 callsubr
          177 hlineto
          71 33 -33 -62 hvcurveto
          -69 vlineto
          -62 -33 -34 -62 vhcurveto
          endchar
        </CharString>
        <CharString name="C">
          45 341 hmoveto
          26 callsubr
        </CharString>
        <CharString name="CR">
          -230 endchar
        </CharString>
        <CharString name="Cacute">
          45 272 callgsubr
          -40 -836 rmoveto
          26 callsubr
        </CharString>
        <CharString name="Ccaron">
          45 289 707 rmoveto
          10 369 callsubr
          -54 97 rlineto
          5 -2 -4 1 -6 292 callsubr
          73 -707 rmoveto
          26 callsubr
        </CharString>
        <CharString name="Ccedilla">
          45 470 440 rmoveto
          8 366 callgsubr
          49 vlineto
          88 367 callgsubr
          -126 hlineto
          -86 -54 573 callsubr
          54 -54 86 vhcurveto
          63 hlineto
          -41 -45 rlineto
          -17 -15 8 -23 24 hhcurveto
          12 hlineto
          40 13 -8 -25 hvcurveto
          -2 vlineto
          -24 -14 -8 -39 vhcurveto
          -20 hlineto
          -8 -2 -3 -7 hvcurveto
          -12 vlineto
          -7 2 -4 8 vhcurveto
          25 hlineto
          53 29 18 42 hvcurveto
          12 vlineto
          45 -27 16 -51 vhcurveto
          4 vlineto
          46 48 rlineto
          20 252 callsubr
          49 vlineto
          9 478 callgsubr
          -28 hlineto
          31 callgsubr
          -47 vlineto
          -63 -33 -36 -62 vhcurveto
          -117 hlineto
          105 callgsubr
          561 callgsubr
          33 36 61 vhcurveto
          117 hlineto
          62 314 callsubr
          -47 548 callsubr
        </CharString>
        <CharString name="D">
          157 callsubr
          endchar
        </CharString>
        <CharString name="Dcaron">
          157 callsubr
          -73 662 rmoveto
          21 210 callgsubr
          -6 -4 540 callsubr
          -54 -97 -53 97 rlineto
          5 -3 -3 1 -7 hhcurveto
          -23 113 callgsubr
          endchar
        </CharString>
        <CharString name="Dcroat">
          370 callgsubr
          -230 vlineto
          -5 198 callgsubr
          -42 458 callgsubr
          -21 vlineto
          -7 2 -3 9 vhcurveto
          42 -92 callgsubr
          -330 176 callgsubr
          49 45 502 callgsubr
          288 48 callgsubr
          148 hlineto
          8 3 3 7 hvcurveto
          21 131 callgsubr
          -148 hlineto
          -7 -2 3 5 hvcurveto
          188 381 callgsubr
        </CharString>
        <CharString name="E">
          -16 -78 callgsubr
          endchar
        </CharString>
        <CharString name="Eacute">
          -16 -78 callgsubr
          213 836 90 callsubr
        </CharString>
        <CharString name="Ecaron">
          -16 -78 callgsubr
          145 707 410 callgsubr
          -7 -3 540 callsubr
          -54 323 callsubr
        </CharString>
        <CharString name="Ecircumflex">
          -16 -78 callgsubr
          185 827 100 callsubr
          54 97 53 207 callsubr
          8 1 5 6 -4 hvcurveto
          endchar
        </CharString>
        <CharString name="Edieresis">
          -16 -78 callgsubr
          212 719 67 callgsubr
        </CharString>
        <CharString name="Edotaccent">
          -1 -78 callgsubr
          130 723 rmoveto
          -8 426 callsubr
          6 4 3 8 hvcurveto
          99 vlineto
          536 callsubr
          -30 219 callsubr
          hvcurveto
          endchar
        </CharString>
        <CharString name="Egrave">
          -16 -78 callgsubr
          117 825 319 callgsubr
          -45 hlineto
          -6 -4 226 callgsubr
          21 hlineto
          6 406 callsubr
        </CharString>
        <CharString name="Emacron">
          -16 -78 callgsubr
          256 752 rmoveto
          9 2 4 6 hvcurveto
          19 161 callsubr
          -203 hlineto
          -8 -103 callgsubr
          -6 3 -4 8 vhcurveto
          endchar
        </CharString>
        <CharString name="Eogonek">
          -16 404 598 rmoveto
          -27 callgsubr
          -309 5 callgsubr
          223 hlineto
          -50 -66 rlineto
          -20 -15 7 -20 33 hhcurveto
          39 34 10 13 10 -5 3 -22 hvcurveto
          -39 hlineto
          53 70 rlineto
          51 -4 callgsubr
          -259 hlineto
          -7 229 callgsubr
          242 vlineto
          6 198 callsubr
          231 101 callgsubr
          -231 hlineto
          -7 229 callgsubr
          230 vlineto
          6 198 callsubr
          endchar
        </CharString>
        <CharString name="Eth">
          370 callgsubr
          -276 98 callgsubr
          -42 458 callgsubr
          -20 vlineto
          -7 377 callsubr
          42 hlineto
          7 3 -3 -5 hvcurveto
          -284 176 callgsubr
          49 45 502 callgsubr
          242 vlineto
          5 48 callsubr
          148 hlineto
          537 callsubr
          20 131 callgsubr
          -148 328 callsubr
          234 381 callgsubr
        </CharString>
        <CharString name="Euro">
          26 314 hmoveto
          86 55 51 88 hvcurveto
          27 vlineto
          -18 callsubr
          -7 -3 24 callgsubr
          -26 vlineto
          -62 -33 -34 -62 vhcurveto
          -56 hlineto
          -62 -33 34 62 hvcurveto
          99 158 vlineto
          9 3 17 callsubr
          17 425 callsubr
          -158 82 158 80 callgsubr
          18 -51 callgsubr
          -158 102 hlineto
          62 33 34 62 vhcurveto
          56 387 callsubr
          -26 vlineto
          -9 3 -3 7 vhcurveto
          29 -23 callgsubr
          27 500 callgsubr
          -65 hlineto
          -85 -55 -51 -88 hvcurveto
          -103 -61 vlineto
          -9 165 callgsubr
          -18 -76 callsubr
          61 -82 -61 hlineto
          -9 -3 -3 -8 hvcurveto
          -17 20 callsubr
          61 -100 hlineto
          -88 55 -51 85 vhcurveto
          endchar
        </CharString>
        <CharString name="F">
          -38 452 callsubr
          272 vlineto
          5 198 callsubr
          231 hlineto
          537 callsubr
          213 callgsubr
          -231 hlineto
          -7 -3 3 5 hvcurveto
          243 vlineto
          6 198 callsubr
          258 -4 callgsubr
          -308 5 callgsubr
          endchar
        </CharString>
        <CharString name="G">
          8 callgsubr
          endchar
        </CharString>
        <CharString name="Gbreve">
          8 callgsubr
          -45 826 rmoveto
          -12 vlineto
          -74 32 -33 62 vhcurveto
          11 486 callsubr
          -3 2 -6 272 callsubr
        </CharString>
        <CharString name="H">
          73 452 callsubr
          283 vlineto
          6 198 callsubr
          280 -92 callgsubr
          -283 vlineto
          -9 3 -3 7 vhcurveto
          29 181 callgsubr
          -29 219 callsubr
          hvcurveto
          -273 98 callgsubr
          -280 hlineto
          -7 229 callgsubr
          273 134 callgsubr
          endchar
        </CharString>
        <CharString name="I">
          -267 140 631 37 callgsubr
          endchar
        </CharString>
        <CharString name="Iacute">
          140 631 37 callgsubr
          41 824 90 callsubr
        </CharString>
        <CharString name="Icircumflex">
          -268 140 631 37 callgsubr
          5 815 166 callsubr
          8 hhcurveto
          23 hlineto
          6 4 588 callgsubr
          54 97 53 -97 rlineto
          -5 3 3 -1 6 hhcurveto
          24 hlineto
          8 345 callgsubr
        </CharString>
        <CharString name="Idieresis">
          -267 140 631 37 callgsubr
          32 707 67 callgsubr
        </CharString>
        <CharString name="Idotaccent">
          -267 90 699 rmoveto
          211 callsubr
          -30 407 callgsubr
          -8 hvcurveto
          50 -164 37 callgsubr
          endchar
        </CharString>
        <CharString name="Igrave">
          -267 140 631 37 callgsubr
          -73 813 rmoveto
          8 -4 -6 3 -8 225 callsubr
          -4 hvcurveto
          endchar
        </CharString>
        <CharString name="Imacron">
          -267 140 631 37 callgsubr
          76 740 192 callsubr
        </CharString>
        <CharString name="Iogonek">
          -267 100 643 rmoveto
          364 callgsubr
          -619 vlineto
          -3 0 -2 1 -2 vhcurveto
          -54 -71 408 callsubr
          7 181 callgsubr
          endchar
        </CharString>
        <CharString name="J">
          2 380 643 237 callgsubr
          -487 vlineto
          -63 -33 -36 -62 vhcurveto
          -91 552 callsubr
          81 vlineto
          8 -4 3 -7 vhcurveto
          -29 175 callsubr
          -83 vlineto
          581 callgsubr
          100 252 callsubr
          490 162 callgsubr
          endchar
        </CharString>
        <CharString name="K">
          106 callgsubr
          endchar
        </CharString>
        <CharString name="L">
          54 callsubr
          endchar
        </CharString>
        <CharString name="Lacute">
          54 callsubr
          81 836 64 callsubr
          -6 hhcurveto
          endchar
        </CharString>
        <CharString name="Lcaron">
          54 callsubr
          267 632 243 callsubr
          -218 569 callsubr
          26 601 callgsubr
        </CharString>
        <CharString name="Lslash">
          7 421 hmoveto
          362 callsubr
          25 161 callsubr
          -269 328 callsubr
          349 vlineto
          101 57 rlineto
          8 4 3 5 7 vvcurveto
          26 vlineto
          6 -4 4 -7 -4 vhcurveto
          -101 -57 rlineto
          178 123 callsubr
          -207 vlineto
          -72 -41 rlineto
          -9 -5 -2 -4 -7 vvcurveto
          -26 vlineto
          -7 3 -3 8 4 vhcurveto
          72 41 rlineto
          -364 548 callsubr
        </CharString>
        <CharString name="M">
          199 350 198 rmoveto
          -4 hlineto
          -188 439 rlineto
          3 -1 -3 3 -5 hhcurveto
          -54 hlineto
          364 callgsubr
          -619 vlineto
          -10 4 -2 6 vhcurveto
          29 285 callsubr
          555 4 vlineto
          180 -416 rlineto
          -8 3 3 -3 8 hhcurveto
          33 hlineto
          8 3 3 8 4 hvcurveto
          177 415 rlineto
          4 -554 hlineto
          -9 4 -3 7 vhcurveto
          29 286 callsubr
          619 vlineto
          9 585 callgsubr
          -54 hlineto
          -5 -3 -3 -3 -1 hvcurveto
          endchar
        </CharString>
        <CharString name="N">
          1 callsubr
          endchar
        </CharString>
        <CharString name="NULL">
          -497 endchar
        </CharString>
        <CharString name="Nacute">
          1 callsubr
          268 836 474 callgsubr
          21 hlineto
          6 6 3 6 4 406 callgsubr
        </CharString>
        <CharString name="Ncaron">
          82 281 707 191 callgsubr
          -157 -707 rmoveto
          8 callsubr
          endchar
        </CharString>
        <CharString name="Ntilde">
          1 callsubr
          207 759 rmoveto
          32 13 2 10 19 hhcurveto
          24 6 -13 -41 hvcurveto
          -34 vlineto
          -8 2 -2 6 vhcurveto
          14 hlineto
          6 3 2 8 hvcurveto
          41 vlineto
          51 -12 26 -48 -29 -13 -9 -40 -15 vhcurveto
          -40 -15 -5 -9 -17 hhcurveto
          -23 -6 13 40 hvcurveto
          33 vlineto
          7 -3 2 -5 396 callgsubr
          -39 vlineto
          -52 13 -26 47 27 16 8 49 16 vhcurveto
          endchar
        </CharString>
        <CharString name="O">
          -60 callsubr
          endchar
        </CharString>
        <CharString name="OE">
          278 221 45 rmoveto
          537 callgsubr
          561 callgsubr
          376 callsubr
          140 5 callsubr
          -535 162 callsubr
          -285 97 rmoveto
          581 callgsubr
          471 -4 callgsubr
          -257 hlineto
          -7 229 callgsubr
          242 vlineto
          6 198 callsubr
          229 hlineto
          9 2 4 7 170 callsubr
          -229 hlineto
          -7 229 callgsubr
          230 vlineto
          6 198 callsubr
          257 -4 callgsubr
          -471 428 callgsubr
          endchar
        </CharString>
        <CharString name="Oacute">
          -60 callsubr
          2 791 321 callgsubr
          -4 5 -6 hhcurveto
          endchar
        </CharString>
        <CharString name="Ocircumflex">
          -60 callsubr
          -26 782 166 callsubr
          7 hhcurveto
          24 hlineto
          6 4 229 callsubr
        </CharString>
        <CharString name="Odieresis">
          -60 callsubr
          674 vmoveto
          31 callsubr
        </CharString>
        <CharString name="Ograve">
          -60 callsubr
          -101 780 319 callgsubr
          -45 hlineto
          -6 -4 226 callgsubr
          21 hlineto
          6 406 callsubr
        </CharString>
        <CharString name="Ohungarumlaut">
          -60 callsubr
          67 791 rmoveto
          -8 505 callgsubr
          -61 -106 rlineto
          -8 -5 2 421 callgsubr
          4 575 callgsubr
          -3 4 -7 hhcurveto
          -155 hmoveto
          -8 234 callgsubr
          5 3 6 5 575 callgsubr
          -4 4 -7 hhcurveto
          endchar
        </CharString>
        <CharString name="Omacron">
          -60 callsubr
          44 707 192 callsubr
        </CharString>
        <CharString name="Oslash">
          62 431 499 rmoveto
          -355 458 callsubr
          -115 hlineto
          -42 -29 17 30 -14 hvcurveto
          294 409 rlineto
          -304 -357 rmoveto
          561 callgsubr
          33 36 62 vhcurveto
          115 hlineto
          42 29 -17 -30 13 hvcurveto
          -294 -410 rlineto
          369 494 rmoveto
          -6 4 -6 -1 -5 -7 -26 -36 rcurveline
          31 -24 -39 17 -48 hhcurveto
          -125 172 callgsubr
          -359 vlineto
          -21 3 -19 6 -17 vhcurveto
          -37 -52 -5 -7 1 -6 5 -4 rlinecurve
          12 -8 6 -4 6 1 5 6 rlinecurve
          27 37 rlineto
          -31 24 38 -17 49 hhcurveto
          125 hlineto
          85 55 54 88 hvcurveto
          359 vlineto
          22 -3 19 -6 17 vhcurveto
          36 51 5 7 0 5 -6 5 rlinecurve
          endchar
        </CharString>
        <CharString name="Otilde">
          -60 callsubr
          -44 714 rmoveto
          32 12 3 10 19 hhcurveto
          23 276 callsubr
          51 -12 26 -48 -29 -12 -9 -40 -15 vhcurveto
          -40 -16 325 callsubr
          -2 2 -6 396 callgsubr
          -39 vlineto
          382 callgsubr
          endchar
        </CharString>
        <CharString name="P">
          27 145 288 rmoveto
          -7 -3 3 5 hvcurveto
          293 vlineto
          6 198 callsubr
          176 470 callgsubr
          -63 hvcurveto
          -113 vlineto
          -62 -32 -36 -62 vhcurveto
          -197 -288 329 callsubr
          222 vlineto
          5 198 callsubr
          180 hlineto
          190 callsubr
          117 vlineto
          88 -55 54 -86 vhcurveto
          -230 5 callgsubr
          endchar
        </CharString>
        <CharString name="Q">
          59 416 -133 rmoveto
          7 5 4 9 -5 hvcurveto
          -75 121 rlineto
          81 3 51 53 85 vvcurveto
          359 vlineto
          88 -55 54 -86 vhcurveto
          -122 hlineto
          -86 -55 573 callsubr
          55 -54 86 vhcurveto
          77 hlineto
          74 -121 rlineto
          -10 6 5 -2 9 hhcurveto
          -167 178 rmoveto
          537 callgsubr
          561 callgsubr
          376 callsubr
          114 47 callsubr
          endchar
        </CharString>
        <CharString name="R">
          37 145 -55 callgsubr
          endchar
        </CharString>
        <CharString name="Racute">
          37 145 -55 callgsubr
          214 836 64 callsubr
          -7 hhcurveto
          endchar
        </CharString>
        <CharString name="Rcaron">
          37 145 -55 callgsubr
          147 707 333 callsubr
          -54 587 callsubr
          -3 1 -7 292 callsubr
          endchar
        </CharString>
        <CharString name="S">
          65 81 142 -31 callgsubr
        </CharString>
        <CharString name="Sacute">
          65 272 callgsubr
          -300 -694 -31 callgsubr
        </CharString>
        <CharString name="Scaron">
          65 290 707 rmoveto
          222 callgsubr
          -6 -4 540 callsubr
          -54 -97 -53 306 callgsubr
          -24 113 callgsubr
          -188 -565 -31 callgsubr
        </CharString>
        <CharString name="T">
          21 callgsubr
          endchar
        </CharString>
        <CharString name="Tcaron">
          21 callgsubr
          4 707 410 callgsubr
          -6 -4 540 callsubr
          -54 323 callsubr
        </CharString>
        <CharString name="Thorn">
          4 155 190 callgsubr
          112 48 callgsubr
          116 hlineto
          86 54 54 87 hvcurveto
          94 vlineto
          88 367 callgsubr
          -116 328 callsubr
          112 123 callsubr
          -619 vlineto
          -9 4 -3 7 vhcurveto
          49 178 502 callgsubr
          269 48 callgsubr
          111 hlineto
          62 314 callsubr
          -90 vlineto
          -62 -33 -36 -62 vhcurveto
          endchar
        </CharString>
        <CharString name="U">
          -59 callgsubr
          endchar
        </CharString>
        <CharString name="Uacute">
          -59 callgsubr
          -125 193 64 callsubr
          -7 hhcurveto
          endchar
        </CharString>
        <CharString name="Ucircumflex">
          -59 callgsubr
          -154 184 100 callsubr
          53 97 54 230 callgsubr
        </CharString>
        <CharString name="Udieresis">
          -59 callgsubr
          -128 76 rmoveto
          31 callsubr
        </CharString>
        <CharString name="Ugrave">
          -59 callgsubr
          -223 182 291 callsubr
        </CharString>
        <CharString name="Uhungarumlaut">
          -59 callgsubr
          -65 193 rmoveto
          -8 234 callgsubr
          5 3 6 5 hvcurveto
          79 109 rlineto
          7 6 -4 4 -7 hhcurveto
          -154 hmoveto
          -9 234 callgsubr
          6 508 callgsubr
          endchar
        </CharString>
        <CharString name="Umacron">
          -59 callgsubr
          -84 109 192 callsubr
        </CharString>
        <CharString name="Uogonek">
          55 433 643 237 callgsubr
          -487 vlineto
          -63 -33 -36 -62 vhcurveto
          -103 hlineto
          105 callgsubr
          487 vlineto
          -72 callsubr
          -489 vlineto
          -88 54 -54 86 vhcurveto
          58 hlineto
          -50 -66 rlineto
          -20 -15 7 -20 33 hhcurveto
          39 35 10 13 10 -5 3 -23 hvcurveto
          -39 hlineto
          53 70 rlineto
          19 252 callsubr
          490 vlineto
          8 478 callgsubr
          endchar
        </CharString>
        <CharString name="Uring">
          -59 callgsubr
          -192 79 rmoveto
          -31 -14 17 34 hvcurveto
          21 vlineto
          33 14 17 32 vhcurveto
          11 hlineto
          32 14 -17 -33 hvcurveto
          -21 vlineto
          -34 -14 -17 -32 vhcurveto
          4 -27 rmoveto
          46 27 26 47 hvcurveto
          31 vlineto
          47 -27 26 -46 vhcurveto
          -20 hlineto
          -46 -25 -26 -47 hvcurveto
          -31 vlineto
          -47 25 -26 46 vhcurveto
          endchar
        </CharString>
        <CharString name="V">
          3 273 hmoveto
          7 4 3 9 2 hvcurveto
          186 619 498 callsubr
          -31 hlineto
          -8 -3 -3 -9 -2 hvcurveto
          -167 -569 rlineto
          -4 hlineto
          -167 569 420 callsubr
          -8 -4 -3 -9 3 hvcurveto
          186 -619 268 callgsubr
          endchar
        </CharString>
        <CharString name="W">
          297 233 hmoveto
          7 4 4 8 2 hvcurveto
          149 564 rlineto
          4 hlineto
          148 -564 rlineto
          -8 2 5 -4 7 hhcurveto
          51 hlineto
          7 4 2 10 2 hvcurveto
          137 619 498 callsubr
          -34 hlineto
          -7 -5 -2 -10 -2 hvcurveto
          -118 -574 rlineto
          -5 hlineto
          -153 575 rlineto
          9 -2 -5 2 -7 hhcurveto
          -38 hlineto
          -7 -4 -2 -9 -2 hvcurveto
          -152 -575 rlineto
          -5 hlineto
          -119 574 rlineto
          10 -2 -4 2 -7 hhcurveto
          -33 hlineto
          -8 -4 -4 -8 2 hvcurveto
          137 -619 rlineto
          -9 2 5 -3 7 hhcurveto
          endchar
        </CharString>
        <CharString name="X">
          7 414 10 rmoveto
          -7 4 5 -3 6 hhcurveto
          34 hlineto
          8 2 5 7 -4 hvcurveto
          -182 328 173 291 rlineto
          8 4 -4 4 -7 hhcurveto
          -33 hlineto
          -8 -4 -3 -9 -5 hvcurveto
          -148 -257 rlineto
          -4 hlineto
          -150 257 rlineto
          9 -4 -6 3 -8 hhcurveto
          -31 hlineto
          -7 -4 -5 -7 4 hvcurveto
          173 -292 -183 -327 rlineto
          -7 -3 2 -5 7 hhcurveto
          34 hlineto
          7 4 3 7 4 hvcurveto
          160 290 rlineto
          4 hlineto
          endchar
        </CharString>
        <CharString name="Y">
          53 callsubr
          endchar
        </CharString>
        <CharString name="Yacute">
          53 callsubr
          76 836 rmoveto
          -8 313 callsubr
          endchar
        </CharString>
        <CharString name="Ydieresis">
          53 callsubr
          71 173 callsubr
        </CharString>
        <CharString name="Z">
          2 callgsubr
          endchar
        </CharString>
        <CharString name="Zacute">
          2 callgsubr
          276 799 474 callgsubr
          20 hlineto
          6 6 3 6 5 406 callgsubr
        </CharString>
        <CharString name="Zcaron">
          2 callgsubr
          204 670 410 callgsubr
          -7 -3 540 callsubr
          -54 -97 -53 306 callgsubr
          -24 297 callgsubr
        </CharString>
        <CharString name="Zdotaccent">
          2 callgsubr
          194 686 rmoveto
          -8 39 callgsubr
          3 3 8 hvcurveto
          99 vlineto
          8 -3 3 -7 530 callsubr
          endchar
        </CharString>
        <CharString name="a">
          5 -64 callsubr
          endchar
        </CharString>
        <CharString name="aacute">
          5 -64 callsubr
          117 703 321 callgsubr
          -3 5 -7 hhcurveto
          endchar
        </CharString>
        <CharString name="abreve">
          5 170 681 rmoveto
          -74 31 -33 63 vhcurveto
          10 486 callsubr
          -3 2 -6 vhcurveto
          -17 hlineto
          -6 -3 556 callsubr
          -17 -21 -45 vhcurveto
          -5 hlineto
          -44 -16 20 57 hvcurveto
          11 vlineto
          8 -4 2 -6 vhcurveto
          -18 560 callsubr
          99 -693 124 callsubr
        </CharString>
        <CharString name="acircumflex">
          5 -64 callsubr
          88 192 callgsubr
        </CharString>
        <CharString name="acute">
          -228 150 703 210 callsubr
          5 3 6 5 406 callgsubr
        </CharString>
        <CharString name="adieresis">
          5 -64 callsubr
          119 586 rmoveto
          31 callsubr
        </CharString>
        <CharString name="ae">
          298 375 142 rmoveto
          -66 -41 -32 -62 vhcurveto
          -63 hlineto
          -64 -32 36 63 hvcurveto
          22 vlineto
          63 32 36 64 vhcurveto
          156 -92 callgsubr
          310 hmoveto
          -5 198 callgsubr
          -241 hlineto
          -7 -2 3 5 hvcurveto
          115 vlineto
          64 40 31 61 vhcurveto
          64 hlineto
          62 314 callsubr
          -260 -168 rmoveto
          5 2 4 7 vhcurveto
          286 557 callsubr
          149 vlineto
          88 367 callgsubr
          -68 hlineto
          -52 -47 -18 -48 -24 hvcurveto
          48 -22 -46 18 -53 hhcurveto
          -153 202 callsubr
          154 hlineto
          61 33 -36 -62 hvcurveto
          -54 vlineto
          -5 -2 -3 -6 vhcurveto
          -162 hlineto
          -86 -54 -53 -87 hvcurveto
          -25 vlineto
          -87 55 -53 85 vhcurveto
          62 hlineto
          56 48 17 49 24 hvcurveto
          -47 22 42 -19 57 hhcurveto
          205 hlineto
          118 callgsubr
          -201 552 callsubr
          endchar
        </CharString>
        <CharString name="agrave">
          5 -64 callsubr
          29 692 rmoveto
          8 -3 -6 3 -9 225 callsubr
          -3 hvcurveto
          endchar
        </CharString>
        <CharString name="amacron">
          5 -64 callsubr
          172 620 56 callgsubr
        </CharString>
        <CharString name="ampersand">
          100 475 8 rmoveto
          -6 5 6 -2 6 hhcurveto
          38 hlineto
          5 1 5 4 -3 hvcurveto
          -207 239 rlineto
          201 80 callgsubr
          24 -51 callgsubr
          -239 hlineto
          -63 72 rlineto
          -31 35 -12 25 42 vvcurveto
          35 vlineto
          62 33 34 61 vhcurveto
          19 hlineto
          60 32 -34 -62 hvcurveto
          -45 122 callsubr
          46 500 callgsubr
          -24 hlineto
          -86 -56 -51 -88 hvcurveto
          -36 vlineto
          -48 15 -32 31 -38 vhcurveto
          -77 -3 -29 -64 -59 vvcurveto
          -85 vlineto
          -88 55 -51 86 vhcurveto
          80 hlineto
          63 43 26 49 18 hvcurveto
          -200 -30 rmoveto
          -62 -33 34 62 hvcurveto
          80 vlineto
          61 28 34 55 3 vhcurveto
          178 -204 rlineto
          -45 -8 -31 -25 -51 hhcurveto
          endchar
        </CharString>
        <CharString name="aogonek">
          5 209 45 rmoveto
          15 callsubr
          158 5 callsubr
          -313 vlineto
          228 callsubr
          -69 465 rmoveto
          238 callsubr
          -226 vlineto
          -88 54 -54 86 vhcurveto
          64 592 callgsubr
          -60 -80 rlineto
          -19 -14 4 -30 32 hhcurveto
          38 34 16 14 1 hvcurveto
          8 -5 4 -22 -1 vhcurveto
          -10 -17 -1 -12 hhcurveto
          -1 34 46 26 19 450 callsubr
        </CharString>
        <CharString name="apostrophemod">
          -318 116 632 83 callgsubr
        </CharString>
        <CharString name="approxequal">
          26 167 398 rmoveto
          225 callgsubr
          -7 4 -4 577 callgsubr
          -167 vmoveto
          225 callgsubr
          -6 4 -5 577 callgsubr
          endchar
        </CharString>
        <CharString name="aring">
          5 174 180 callgsubr
          67 -623 124 callsubr
        </CharString>
        <CharString name="asciicircum">
          -32 357 376 rmoveto
          -8 4 4 -4 9 hhcurveto
          24 hlineto
          9 4 6 8 -5 hvcurveto
          -131 250 rlineto
          10 -5 -6 5 -13 hhcurveto
          -37 hlineto
          -13 -6 -5 -10 -5 hvcurveto
          -131 -250 rlineto
          -8 -5 4 -6 9 hhcurveto
          24 hlineto
          9 3 4 8 5 hvcurveto
          124 236 rlineto
          endchar
        </CharString>
        <CharString name="asciitilde">
          26 167 317 rmoveto
          53 77 -29 58 hhcurveto
          28 29 5 10 23 hvcurveto
          13 6 5 4 9 vvcurveto
          -73 callsubr
          -3 4 -6 vhcurveto
          -11 -34 -22 -43 -57 -71 30 -60 hhcurveto
          -28 -29 -6 -9 -22 hvcurveto
          -14 -6 -5 -4 -10 vvcurveto
          -19 vlineto
          -6 4 -5 577 callgsubr
          endchar
        </CharString>
        <CharString name="asterisk">
          -91 225 632 362 callgsubr
          -22 175 callsubr
          -15 vlineto
          -53 18 -47 4 -12 vhcurveto
          6 12 16 47 53 vvcurveto
          -114 -201 rmoveto
          -5 -8 2 -5 5 -3 18 -13 rcurveline
          6 -4 5 0 4 6 9 14 rcurveline
          31 42 13 49 4 11 -12 -6 -40 -28 -31 -43 rrcurveto
          -31 136 rmoveto
          -8 3 -4 -3 -1 -6 -8 -21 rcurveline
          -2 -7 2 -4 7 -2 16 -6 rcurveline
          -15 49 51 2 12 hhcurveto
          -9 9 -40 30 -50 16 rrcurveto
          226 -37 rmoveto
          9 3 1 6 -2 5 -7 21 rcurveline
          -2 8 -3 2 -8 -3 -16 -4 rcurveline
          -50 -17 -39 -31 -10 -8 13 -2 50 0 49 16 rrcurveto
          -55 -129 rmoveto
          5 -7 5 1 5 4 18 12 rcurveline
          6 5 1 4 -4 6 -10 13 rcurveline
          -31 43 -42 27 -10 7 2 -12 15 -48 31 -42 rrcurveto
          endchar
        </CharString>
        <CharString name="at">
          256 472 225 rmoveto
          -64 -40 -35 -63 vhcurveto
          -1 552 callsubr
          94 vlineto
          63 376 callsubr
          94 -92 callgsubr
          43 -467 rmoveto
          362 callsubr
          16 vlineto
          6 -2 4 -9 vhcurveto
          -183 hlineto
          -111 -99 83 133 hvcurveto
          155 vlineto
          133 97 83 111 vhcurveto
          193 hlineto
          68 42 -41 -70 hvcurveto
          -234 vlineto
          -64 -34 -36 -62 vhcurveto
          -9 hlineto
          -7 -4 3 6 hvcurveto
          318 vlineto
          539 callgsubr
          -142 hlineto
          -83 366 callsubr
          -93 vlineto
          -88 54 -52 80 39 46 10 42 22 vhcurveto
          4 -20 hlineto
          -21 17 -13 19 vhcurveto
          30 hlineto
          80 54 53 82 hvcurveto
          239 vlineto
          88 -59 58 -89 vhcurveto
          -194 hlineto
          -125 -122 -92 -160 hvcurveto
          -158 vlineto
          -163 124 -88 126 vhcurveto
          endchar
        </CharString>
        <CharString name="atilde">
          7 -64 callsubr
          -40 654 rmoveto
          596 callsubr
          32 13 2 10 19 hhcurveto
          23 418 callgsubr
          6 vhcurveto
          14 hlineto
          5 3 2 8 hvcurveto
          41 vlineto
          52 -12 26 -47 -30 -12 -10 -40 -15 vhcurveto
          -40 -15 -5 -9 -17 434 callgsubr
          endchar
        </CharString>
        <CharString name="b">
          7 75 12 rmoveto
          -9 4 -3 6 vhcurveto
          214 252 callsubr
          235 vlineto
          87 367 callgsubr
          -66 hlineto
          -57 -32 -24 -28 -15 hvcurveto
          -4 225 hlineto
          -72 callsubr
          60 -646 rmoveto
          -7 229 callgsubr
          321 vlineto
          64 40 34 63 vhcurveto
          66 hlineto
          62 33 -36 -62 hvcurveto
          -231 vlineto
          -63 -33 -36 -62 vhcurveto
          endchar
        </CharString>
        <CharString name="backslash">
          -101 282 13 rmoveto
          -10 4 4 -3 8 hhcurveto
          26 hlineto
          8 6 4 10 -4 hvcurveto
          -13 35 -194 546 -13 35 rrcurveto
          9 -4 -3 callsubr
          hhcurveto
          -28 hlineto
          -8 -3 -6 -9 4 hvcurveto
          endchar
        </CharString>
        <CharString name="bar">
          -290 124 631 rmoveto
          547 callgsubr
          -619 vlineto
          -9 4 -3 7 vhcurveto
          20 -23 callgsubr
          endchar
        </CharString>
        <CharString name="braceleft">
          -199 223 643 rmoveto
          -77 -36 -54 -88 hvcurveto
          -132 vlineto
          -57 -22 -19 -40 -9 -3 -4 -7 vhcurveto
          -24 vlineto
          -7 3 -4 9 40 22 -19 -57 vhcurveto
          -131 vlineto
          -88 36 -54 77 vhcurveto
          5 394 callgsubr
          -4 hlineto
          -54 -16 36 62 hvcurveto
          137 vlineto
          50 -18 35 -36 11 vhcurveto
          36 12 18 33 51 vvcurveto
          138 vlineto
          62 16 36 54 vhcurveto
          4 394 callgsubr
          endchar
        </CharString>
        <CharString name="braceright">
          -199 166 501 rmoveto
          88 -36 54 -77 vhcurveto
          -5 hlineto
          -88 callgsubr
          -7 3 -4 9 vhcurveto
          4 hlineto
          53 16 -36 -62 hvcurveto
          -138 vlineto
          -51 19 -33 35 -12 vhcurveto
          -35 -11 -19 -35 -50 vvcurveto
          -137 vlineto
          -62 -16 -36 -53 vhcurveto
          -4 hlineto
          -88 callgsubr
          -7 3 -4 9 vhcurveto
          5 hlineto
          77 36 54 88 hvcurveto
          131 vlineto
          57 22 19 40 9 2 4 7 vhcurveto
          24 219 callgsubr
          -40 -22 19 57 vhcurveto
          endchar
        </CharString>
        <CharString name="bracketleft">
          -210 207 -101 rmoveto
          362 callsubr
          18 161 callsubr
          -89 328 callsubr
          646 48 callgsubr
          89 457 callsubr
          18 161 callsubr
          -133 219 callsubr
          hvcurveto
          -720 558 callsubr
          endchar
        </CharString>
        <CharString name="bracketright">
          -210 60 -90 rmoveto
          -65 callsubr
          132 -23 callgsubr
          720 vlineto
          539 callgsubr
          -132 hlineto
          -9 165 callgsubr
          -18 -76 callsubr
          88 -92 callgsubr
          -646 98 callgsubr
          -88 hlineto
          -9 165 callgsubr
          endchar
        </CharString>
        <CharString name="breve">
          -165 66 681 rmoveto
          317 callsubr
          -5 272 callsubr
        </CharString>
        <CharString name="brokenbar">
          -296 122 257 rmoveto
          8 431 callsubr
          -23 175 callsubr
          -245 vlineto
          -9 4 -3 7 vhcurveto
          23 285 callsubr
          619 vmoveto
          337 callsubr
          -23 hlineto
          31 callgsubr
          -245 553 callsubr
          23 554 callsubr
          endchar
        </CharString>
        <CharString name="bullet">
          -224 181 380 rmoveto
          15 -8 7 -13 vhcurveto
          -47 hlineto
          -14 -8 -7 -15 hvcurveto
          -122 vlineto
          -15 8 -7 14 vhcurveto
          47 hlineto
          13 8 7 15 hvcurveto
          endchar
        </CharString>
        <CharString name="c">
          59 callgsubr
          endchar
        </CharString>
        <CharString name="cacute">
          59 callgsubr
          -73 692 90 callsubr
        </CharString>
        <CharString name="caron">
          -171 152 574 191 callgsubr
          endchar
        </CharString>
        <CharString name="ccaron">
          59 callgsubr
          -135 563 32 callgsubr
        </CharString>
        <CharString name="ccedilla">
          -103 349 465 rmoveto
          9 2 3 7 hvcurveto
          213 callgsubr
          -144 -44 callgsubr
          32 hlineto
          -39 -44 rlineto
          -16 -15 8 -23 24 hhcurveto
          12 hlineto
          40 13 -8 -25 hvcurveto
          -2 vlineto
          -22 -14 -10 -39 vhcurveto
          -19 hlineto
          -9 -3 -3 -7 hvcurveto
          -13 vlineto
          -6 -56 callsubr
          24 hlineto
          53 29 17 43 hvcurveto
          12 vlineto
          45 -27 16 -51 vhcurveto
          4 vlineto
          44 46 rlineto
          69 hlineto
          9 2 3 8 hvcurveto
          23 vlineto
          186 callgsubr
          endchar
        </CharString>
        <CharString name="cedilla">
          -240 74 -44 rmoveto
          321 callsubr
          3 -4 8 vhcurveto
          25 hlineto
          52 391 callsubr
          62 66 rlineto
          -44 hlineto
          endchar
        </CharString>
        <CharString name="cent">
          -83 271 -90 rmoveto
          7 4 3 8 hvcurveto
          79 85 vlineto
          537 callsubr
          24 vlineto
          6 258 callgsubr
          -158 149 callgsubr
          158 hlineto
          8 3 4 6 hvcurveto
          24 vlineto
          7 -6 4 -9 vhcurveto
          -81 91 hlineto
          9 -4 3 -7 214 callsubr
          -8 hvcurveto
          -91 -33 vlineto
          -85 -53 -55 -87 hvcurveto
          -226 vlineto
          -87 53 -55 85 vhcurveto
          33 -79 hlineto
          -8 4 -3 7 vhcurveto
          endchar
        </CharString>
        <CharString name="circumflex">
          -171 193 694 100 callsubr
          54 97 53 207 callsubr
          7 2 5 6 -4 hvcurveto
          endchar
        </CharString>
        <CharString name="colon">
          -306 123 131 130 callgsubr
          487 vmoveto
          349 callsubr
          endchar
        </CharString>
        <CharString name="comma">
          -306 123 131 rmoveto
          283 callgsubr
        </CharString>
        <CharString name="copyright">
          226 205 643 rmoveto
          -81 -52 -52 -81 hvcurveto
          -377 vlineto
          -81 52 -52 81 vhcurveto
          313 hlineto
          81 51 52 81 hvcurveto
          377 vlineto
          81 -51 52 -81 vhcurveto
          -308 -605 rmoveto
          -63 -34 36 64 hvcurveto
          367 150 callgsubr
          303 hlineto
          63 34 -36 -64 hvcurveto
          -367 vlineto
          -64 -34 -36 -63 vhcurveto
          -19 364 rmoveto
          80 -42 34 -79 vhcurveto
          -27 hlineto
          -79 -42 -34 -80 hvcurveto
          -167 vlineto
          -80 42 -33 79 vhcurveto
          27 hlineto
          79 42 33 80 hvcurveto
          26 vlineto
          7 -3 3 -6 vhcurveto
          -22 hlineto
          -6 -4 -3 -7 hvcurveto
          -22 vlineto
          -63 -22 -18 -63 vhcurveto
          -18 hlineto
          -62 -23 18 63 hvcurveto
          159 vlineto
          64 23 17 62 vhcurveto
          18 hlineto
          63 22 -17 -64 hvcurveto
          -16 vlineto
          -8 4 -2 6 vhcurveto
          22 hlineto
          6 3 2 8 hvcurveto
          endchar
        </CharString>
        <CharString name="d">
          7 96 callgsubr
          endchar
        </CharString>
        <CharString name="dagger">
          -70 217 hmoveto
          6 5 -84 callgsubr
          2 12 8 250 52 vvcurveto
          34 -3 50 -4 21 180 callsubr
          138 6 rlineto
          -4 -23 -2 -52 -29 vvcurveto
          -53 8 -250 2 -12 vhcurveto
          -9 4 -3 7 vhcurveto
          endchar
        </CharString>
        <CharString name="daggerdbl">
          -70 194 431 rmoveto
          -3 -24 -3 -56 -31 vvcurveto
          -32 3 -54 3 -23 vhcurveto
          -138 6 rlineto
          -9 1 -2 -5 -7 vvcurveto
          -26 vlineto
          -7 2 -3 9 vhcurveto
          139 7 -7 -165 rlineto
          -9 -1 5 -3 7 hhcurveto
          294 callsubr
          -7 165 140 -7 rlineto
          8 3 3 7 hvcurveto
          26 vlineto
          7 -3 5 -8 -1 vhcurveto
          -140 -7 rlineto
          4 23 3 52 34 vvcurveto
          34 -3 56 -4 22 180 callsubr
          endchar
        </CharString>
        <CharString name="danda">
          -211 315 callgsubr
          endchar
        </CharString>
        <CharString name="dcaron">
          37 96 callgsubr
          337 692 rmoveto
          536 callsubr
          -32 407 callgsubr
          -8 hvcurveto
          -218 vlineto
          -7 4 -2 3 4 3 2 5 2 vhcurveto
          25 91 478 callsubr
          16 20 vvcurveto
          endchar
        </CharString>
        <CharString name="dcroat">
          42 379 527 callgsubr
          -67 hlineto
          105 callgsubr
          156 vlineto
          62 33 36 61 vhcurveto
          67 hlineto
          63 40 -34 -64 hvcurveto
          -109 -300 rmoveto
          327 callsubr
          6 vhcurveto
          29 -23 callgsubr
          535 vlineto
          6 198 callsubr
          63 hlineto
          9 3 4 7 170 callgsubr
          -63 hlineto
          -7 229 callgsubr
          84 vlineto
          -72 callsubr
          -84 98 callgsubr
          -161 458 callgsubr
          -20 vlineto
          -7 377 callsubr
          161 -92 callgsubr
          -156 -4 vlineto
          29 -15 -32 24 -58 hhcurveto
          -65 172 callgsubr
          -160 vlineto
          -88 54 -54 86 vhcurveto
          endchar
        </CharString>
        <CharString name="degree">
          -199 155 540 rmoveto
          -12 hlineto
          -26 -6 8 24 hvcurveto
          69 vlineto
          25 6 7 26 vhcurveto
          12 hlineto
          26 5 -7 -25 hvcurveto
          -69 vlineto
          -24 -5 -8 -26 vhcurveto
          14 -29 rmoveto
          30 20 18 31 hvcurveto
          97 vlineto
          30 -20 17 -30 vhcurveto
          -42 hlineto
          -31 -18 -17 -30 hvcurveto
          -97 vlineto
          -31 18 -18 31 vhcurveto
          endchar
        </CharString>
        <CharString name="dieresis">
          -152 230 586 rmoveto
          -9 3 -3 7 vhcurveto
          28 hlineto
          6 4 85 callgsubr
          -3 -3 -8 hvcurveto
          -164 -106 93 callgsubr
          endchar
        </CharString>
        <CharString name="divide">
          13 234 434 rmoveto
          -9 4 -3 7 vhcurveto
          20 -23 callgsubr
          60 vlineto
          547 callgsubr
          190 -193 359 callgsubr
          18 -51 callgsubr
          -338 hlineto
          -9 165 callgsubr
          -18 -76 callsubr
          148 -154 555 callsubr
          20 hlineto
          7 400 callgsubr
          61 vlineto
          547 callgsubr
          endchar
        </CharString>
        <CharString name="dollar">
          7 275 -98 329 callsubr
          86 9 vlineto
          85 55 54 88 hvcurveto
          66 vlineto
          107 -62 30 -78 2 vhcurveto
          -72 hlineto
          -67 1 -37 21 70 vvcurveto
          58 vlineto
          67 33 35 64 vhcurveto
          70 hlineto
          64 33 -35 -65 hvcurveto
          -24 vlineto
          -9 4 -3 7 vhcurveto
          29 286 callsubr
          28 vlineto
          86 -54 56 -84 vhcurveto
          -9 86 hlineto
          539 callgsubr
          -23 hlineto
          31 callgsubr
          -86 -32 vlineto
          -86 -54 -55 -87 hvcurveto
          -63 vlineto
          -109 64 -27 83 -2 vhcurveto
          63 -1 rlineto
          66 -1 40 -21 -74 vvcurveto
          -59 vlineto
          -65 -33 -36 -64 vhcurveto
          -72 hlineto
          -64 -33 36 64 hvcurveto
          28 vlineto
          9 -3 357 callgsubr
          -2 -9 hvcurveto
          -31 vlineto
          -87 55 -55 85 vhcurveto
          32 -86 hlineto
          -9 4 -3 7 vhcurveto
          endchar
        </CharString>
        <CharString name="dotaccent">
          -314 66 589 195 callgsubr
        </CharString>
        <CharString name="dotlessi">
          -285 81 12 rmoveto
          -9 3 -3 7 vhcurveto
          29 hlineto
          8 3 2 10 hvcurveto
          486 vlineto
          -18 callsubr
          -7 -3 24 callgsubr
          endchar
        </CharString>
        <CharString name="dottedcircle">
          163 139 517 rmoveto
          -26 18 -19 26 26 18 19 26 25 -18 19 -26 -26 -18 -19 -25 vhcurveto
          -82 -110 rmoveto
          -25 20 -19 26 24 20 19 25 25 -20 19 -24 -26 -20 -19 -25 vhcurveto
          -13 -126 rmoveto
          -25 19 -18 25 26 18 18 596 callgsubr
          52 -116 rmoveto
          -26 18 -18 26 25 19 18 26 25 -19 19 -25 -26 -18 -19 -25 vhcurveto
          101 -75 rmoveto
          -26 19 -20 26 25 19 20 26 24 -19 20 -25 -26 -19 -20 -24 vhcurveto
          127 -16 rmoveto
          -26 18 -18 26 26 19 18 26 26 -19 18 -26 -26 -18 -18 -26 vhcurveto
          121 53 rmoveto
          -26 19 -18 25 25 20 18 26 25 -20 19 -25 -25 -19 -19 -25 vhcurveto
          73 98 rmoveto
          -25 19 -19 26 24 19 19 25 26 -19 19 -24 -26 -19 -19 -26 vhcurveto
          10 134 rmoveto
          -26 18 -18 26 25 19 18 26 26 -19 18 -25 -26 -18 -18 -26 vhcurveto
          -50 118 rmoveto
          -25 19 -19 25 26 18 19 596 callgsubr
          -95 68 rmoveto
          -24 19 -20 26 25 18 20 24 26 -18 19 -25 -26 -19 -19 -26 vhcurveto
          -126 15 rmoveto
          -26 18 -18 26 26 18 18 26 26 -18 18 -26 -26 -18 -18 -26 vhcurveto
          endchar
        </CharString>
        <CharString name="doubledanda">
          21 315 callgsubr
          231 -599 rmoveto
          13 callgsubr
          599 80 callsubr
          -25 hlineto
          -8 -18 callgsubr
          endchar
        </CharString>
        <CharString name="dvA">
          101 480 623 38 callgsubr
          84 hlineto
          9 -106 callgsubr
          -9 vhcurveto
          endchar
        </CharString>
        <CharString name="dvAA">
          331 478 623 rmoveto
          -32 callsubr
          8 2 -3 -6 hvcurveto
          -560 vlineto
          -9 4 -3 7 vhcurveto
          26 -23 callgsubr
          560 vlineto
          6 3 3 7 -103 callsubr
          endchar
        </CharString>
        <CharString name="dvAI">
          29 468 623 rmoveto
          -13 -4 246 callgsubr
          -4 3 -9 hhcurveto
          -27 hlineto
          -6 115 callgsubr
          61 -90 41 -59 41 -52 25 -30 rlinecurve
          -414 -88 callsubr
          84 -92 callgsubr
          -392 vlineto
          -89 56 -60 91 vhcurveto
          178 396 callsubr
          7 -3 5 -9 vhcurveto
          -172 hlineto
          -69 -37 39 66 hvcurveto
          391 vlineto
          6 3 443 callgsubr
          -149 vlineto
          -74 -39 -20 -50 vhcurveto
          -40 hlineto
          -9 165 callgsubr
          -21 20 callsubr
          43 hlineto
          79 55 41 97 hvcurveto
          149 vlineto
          6 198 callsubr
          62 -46 callsubr
          endchar
        </CharString>
        <CharString name="dvAU">
          332 745 623 rmoveto
          -6 -1 3 6 hvcurveto
          229 vlineto
          9 -4 2 -8 vhcurveto
          -24 175 callsubr
          -53 vlineto
          -79 11 -65 7 -16 vhcurveto
          -3 -1 -138 214 492 callsubr
          -24 hlineto
          -7 115 callgsubr
          61 -90 54 -78 46 -50 11 -9 rlinecurve
          -4 -208 vlineto
          -32 callsubr
          7 3 -3 -6 hvcurveto
          -560 vlineto
          -9 4 -3 7 -6 callsubr
        </CharString>
        <CharString name="dvAbbreviationsign">
          -106 350 285 rmoveto
          46 vlineto
          86 -54 53 -85 vhcurveto
          -33 hlineto
          -85 -53 -53 -86 hvcurveto
          -46 vlineto
          -86 53 -53 85 vhcurveto
          33 hlineto
          85 54 53 86 hvcurveto
          -262 2 rmoveto
          42 vlineto
          63 31 36 64 vhcurveto
          24 hlineto
          63 32 -36 -63 hvcurveto
          -42 vlineto
          -63 -32 -36 -63 vhcurveto
          -24 hlineto
          -64 -31 36 63 hvcurveto
          endchar
        </CharString>
        <CharString name="dvAcandra">
          101 480 623 38 callgsubr
          84 hlineto
          9 -106 callgsubr
          -9 vhcurveto
          4 207 rmoveto
          -8 262 callgsubr
          70 hlineto
          81 39 40 83 hvcurveto
          6 vlineto
          10 -5 4 -8 vhcurveto
          endchar
        </CharString>
        <CharString name="dvAnusvara">
          -497 -92 779 rmoveto
          539 callgsubr
          -32 299 callgsubr
          32 557 callsubr
          endchar
        </CharString>
        <CharString name="dvAnusvara.amI">
          -497 96 779 rmoveto
          539 callgsubr
          -33 299 callgsubr
          33 -23 callgsubr
          endchar
        </CharString>
        <CharString name="dvAvagraha">
          32 442 202 rmoveto
          69 -27 27 -119 62 vhcurveto
          -106 55 -18 38 43 vvcurveto
          60 11 25 73 vhcurveto
          132 -106 callsubr
          -137 hlineto
          -106 -21 -40 -88 -68 20 -46 112 -58 hvcurveto
          93 -48 44 -21 -54 vvcurveto
          -61 vlineto
          -55 -15 -40 -75 vhcurveto
          -43 hlineto
          -58 -31 35 47 -44 hvcurveto
          5 -5 -4 4 -5 576 callgsubr
          -9 -8 rlineto
          -4 -3 -2 -3 -5 vvcurveto
          -4 3 -6 4 -3 vhcurveto
          -38 32 52 -60 79 hhcurveto
          51 hlineto
          94 39 51 85 hvcurveto
          endchar
        </CharString>
        <CharString name="dvB">
          -232 391 612 rmoveto
          -54 callgsubr
          -381 -88 callsubr
          381 hlineto
          9 3 17 callsubr
          -183 -463 218 callsubr
          108 136 237 callgsubr
          -25 -36 callsubr
          84 54 52 91 hvcurveto
          24 476 callgsubr
        </CharString>
        <CharString name="dvBA">
          -6 208 130 29 callsubr
          -254 29 callgsubr
          343 -20 callgsubr
          -87 -54 -53 -88 -1 hvcurveto
          448 callgsubr
          56 -52 86 vhcurveto
          43 183 callgsubr
          -122 hlineto
          -99 callgsubr
          9 -106 callgsubr
          -9 vhcurveto
          endchar
        </CharString>
        <CharString name="dvBH">
          437 callsubr
          -219 hlineto
          126 callgsubr
          45 29 -23 -54 243 callgsubr
          218 287 rmoveto
          -107 callsubr
          -94 hlineto
          444 callsubr
          -8 376 callgsubr
          endchar
        </CharString>
        <CharString name="dvBHA">
          -6 342 449 callsubr
          7 4 3 9 hvcurveto
          560 vlineto
          6 3 3 7 -103 callsubr
          -230 hlineto
          33 callgsubr
          -8 -88 callsubr
          8 hlineto
          43 31 -21 -56 243 callgsubr
          endchar
        </CharString>
        <CharString name="dvBH_LA">
          444 262 623 rmoveto
          0 -1 575 callsubr
          vlineto
          266 callsubr
          575 callsubr
          1 0 529 vlineto
          -95 callsubr
          -171 -4 vlineto
          435 callsubr
          -73 -51 -33 -73 -12 hvcurveto
          -201 hlineto
          126 callgsubr
          45 29 -23 -54 243 callgsubr
          197 -116 hlineto
          -1 callgsubr
          311 callgsubr
          -289 vlineto
          -9 4 -3 8 vhcurveto
          25 hlineto
          7 5 -84 callgsubr
          560 vlineto
          6 2 3 7 -103 callsubr
          endchar
        </CharString>
        <CharString name="dvBH_NA">
          260 260 -91 callgsubr
          348 284 callgsubr
          -182 hlineto
          -39 -27 -14 -24 -15 hvcurveto
          -208 hlineto
          126 callgsubr
          45 29 -23 -54 243 callgsubr
          192 hlineto
          -1 -5 0 -4 -5 336 callsubr
          4 4 6 5 -2 3 -2 9 hvcurveto
          -6 17 -4 17 248 callsubr
          172 hlineto
          7 479 callgsubr
          -310 203 callgsubr
          560 vlineto
          6 3 3 7 -103 callsubr
          endchar
        </CharString>
        <CharString name="dvBH_R">
          -240 137 341 rmoveto
          145 callgsubr
          154 209 callsubr
          -314 vlineto
          -71 callsubr
          4 8 vhcurveto
          206 -5 hlineto
          -242 -281 144 callsubr
          208 247 rlineto
          14 16 4 13 27 vvcurveto
          1 vlineto
          20 95 callsubr
          -107 282 300 callsubr
          107 -69 callsubr
          endchar
        </CharString>
        <CharString name="dvBH_RA">
          -6 263 623 rmoveto
          293 callgsubr
          -221 vlineto
          -6 187 callsubr
          154 209 callsubr
          -314 vlineto
          -71 callsubr
          4 8 vhcurveto
          204 hlineto
          5 2 -2 -3 1 hvcurveto
          -248 -281 144 callsubr
          196 226 rlineto
          -220 203 callgsubr
          560 vlineto
          6 3 3 7 -103 callsubr
          endchar
        </CharString>
        <CharString name="dvBH_R_YA">
          333 690 -91 callsubr
          -426 51 rmoveto
          59 callsubr
          -42 -197 vlineto
          145 callgsubr
          154 209 callsubr
          -314 vlineto
          -71 callsubr
          4 8 vhcurveto
          196 -23 hlineto
          -232 -263 144 callsubr
          184 211 rlineto
          -68 16 54 -45 83 hhcurveto
          -41 callgsubr
          7 vhcurveto
          26 -23 callgsubr
          560 vlineto
          6 3 3 7 -103 callsubr
          endchar
        </CharString>
        <CharString name="dvBH_VA">
          258 262 623 300 callsubr
          344 hlineto
          7 3 -3 -6 hvcurveto
          -340 vlineto
          -81 callgsubr
          -87 -54 -53 -88 -1 hvcurveto
          -2 -197 vlineto
          126 callgsubr
          45 29 -23 -54 243 callgsubr
          196 -62 hlineto
          -88 56 -52 86 vhcurveto
          201 callgsubr
          3 3 7 -103 callsubr
          endchar
        </CharString>
        <CharString name="dvBH_YA">
          330 688 -91 callsubr
          -426 51 rmoveto
          0 -1 575 callsubr
          vlineto
          266 callsubr
          575 callsubr
          1 0 133 277 callgsubr
          -46 -195 vlineto
          126 callgsubr
          45 29 -23 -54 243 callgsubr
          194 -34 hlineto
          -91 59 -65 99 vhcurveto
          -41 callgsubr
          7 vhcurveto
          26 -23 callgsubr
          560 vlineto
          6 3 3 7 -103 callsubr
          endchar
        </CharString>
        <CharString name="dvB_BA">
          286 501 130 29 callsubr
          -337 hmoveto
          -34 callsubr
          636 -20 callgsubr
          -87 -54 -53 -88 -1 hvcurveto
          -116 -36 callsubr
          54 42 22 40 23 hvcurveto
          -39 23 43 -22 56 hhcurveto
          43 183 callgsubr
          -122 hlineto
          -99 callgsubr
          9 -106 callgsubr
          -9 vhcurveto
          endchar
        </CharString>
        <CharString name="dvB_BHA">
          267 392 callgsubr
          17 3 16 5 13 vhcurveto
          217 -224 rlineto
          -23 -16 -28 -13 -37 hhcurveto
          281 493 rmoveto
          -9 -5 359 callsubr
          5 -86 callgsubr
          78 5 callsubr
          -217 vlineto
          -6 -2 -3 179 callgsubr
          2 8 hvcurveto
          149 197 callsubr
          -281 -88 callsubr
          281 560 callgsubr
          -277 vlineto
          -9 -1 -9 -1 -8 vhcurveto
          -212 219 369 callgsubr
          8 30 hhcurveto
          218 callgsubr
          -52 86 vhcurveto
          54 hlineto
          88 53 54 82 523 callsubr
          -291 hlineto
          -9 4 -3 7 vhcurveto
          26 -23 callgsubr
          560 vlineto
          6 3 3 7 -103 callsubr
          endchar
        </CharString>
        <CharString name="dvB_BH_RA">
          267 380 callsubr
          -25 -16 -27 -14 -39 hhcurveto
          281 493 rmoveto
          -9 -5 359 callsubr
          5 -86 callgsubr
          78 -92 callgsubr
          -217 98 callgsubr
          -205 hlineto
          -5 -3 2 8 hvcurveto
          149 vlineto
          77 -46 41 -76 vhcurveto
          -281 -88 callsubr
          281 hlineto
          43 30 -21 -56 hvcurveto
          -279 vlineto
          -1 vlineto
          0 vlineto
          -6 -1 -7 -1 -5 vhcurveto
          -210 215 274 callsubr
          56 hlineto
          89 50 55 81 523 callsubr
          -11 hlineto
          -247 -280 512 callgsubr
          8 5 3 7 6 hvcurveto
          194 224 rlineto
          -216 vlineto
          -99 callgsubr
          9 -106 callgsubr
          -9 vhcurveto
          endchar
        </CharString>
        <CharString name="dvB_DA">
          278 208 130 rmoveto
          -34 callsubr
          632 100 callgsubr
          249 callgsubr
          -91 -36 callsubr
          54 42 22 39 23 hvcurveto
          -39 22 42 -23 57 hhcurveto
          70 hlineto
          477 callgsubr
          17 hvcurveto
          -10 callgsubr
        </CharString>
        <CharString name="dvB_DHA">
          347 208 132 rmoveto
          -64 -33 35 64 hvcurveto
          113 vlineto
          18 3 15 5 13 vhcurveto
          219 -224 rlineto
          -22 -15 -27 -12 -37 hhcurveto
          355 491 -98 callsubr
          79 hlineto
          8 526 callsubr
          -34 -41 -69 vhcurveto
          -104 hlineto
          -62 -30 27 64 hvcurveto
          42 vlineto
          55 26 29 56 135 callgsubr
          -62 237 callsubr
          35 499 callgsubr
          22 -106 callsubr
          -505 -88 callsubr
          394 221 callsubr
          -43 -14 -19 -32 -1 -52 rrcurveto
          -2 vlineto
          -23 vlineto
          -11 -1 -10 -2 -10 102 callgsubr
          53 hlineto
          9 4 4 7 hvcurveto
          20 345 callsubr
          -9 vhcurveto
          -56 hlineto
          -87 -54 -53 -88 hvcurveto
          -115 vlineto
          -88 55 -53 86 vhcurveto
          51 hlineto
          50 39 17 33 24 hvcurveto
          -44 20 44 -22 59 hhcurveto
          110 hlineto
          45 37 535 callgsubr
          -110 hlineto
          -9 4 -3 7 vhcurveto
          26 -23 callgsubr
          560 vlineto
          6 3 3 7 -103 callsubr
          endchar
        </CharString>
        <CharString name="dvB_DH_VA">
          600 380 callsubr
          -26 -22 -20 -13 -43 hhcurveto
          398 29 callgsubr
          298 hlineto
          7 3 -3 -6 hvcurveto
          -340 vlineto
          -81 callgsubr
          -87 -54 -53 -88 -1 hvcurveto
          -107 vlineto
          -26 5 -23 9 -19 vhcurveto
          -23 -22 -21 -16 -43 hhcurveto
          -104 hlineto
          -62 -30 27 63 hvcurveto
          38 vlineto
          55 26 29 56 -15 callsubr
          32 499 callgsubr
          32 -106 callsubr
          -519 -88 callsubr
          398 307 callsubr
          -33 vlineto
          -52 467 callsubr
          -4 vlineto
          -44 -15 -19 -34 -55 vvcurveto
          -41 vlineto
          -5 0 -6 1 -5 vhcurveto
          -1 hlineto
          -220 225 274 callsubr
          46 hlineto
          63 35 27 31 24 hvcurveto
          -43 21 43 -22 59 hhcurveto
          110 hlineto
          54 32 24 24 23 hvcurveto
          -24 25 35 -13 43 hhcurveto
          201 callgsubr
          2 3 8 -103 callsubr
          endchar
        </CharString>
        <CharString name="dvB_JA">
          386 111 321 rmoveto
          20 3 17 7 14 vhcurveto
          223 -258 rlineto
          -136 hlineto
          -64 -33 35 64 hvcurveto
          -113 410 -98 callsubr
          736 -96 callsubr
          -143 162 callsubr
          -314 202 callsubr
          59 244 callsubr
          -85 hlineto
          -249 288 rlineto
          12 16 21 6 27 hhcurveto
          441 callgsubr
          5 -9 vhcurveto
          -59 hlineto
          -87 -54 -53 -88 -1 hvcurveto
          -114 vlineto
          -88 56 -52 86 vhcurveto
          280 hlineto
          77 52 42 94 hvcurveto
          76 vlineto
          43 -12 31 -29 15 vhcurveto
          4 160 vlineto
          -35 callgsubr
          -354 vlineto
          -9 4 -3 7 vhcurveto
          26 -23 callgsubr
          560 vlineto
          6 3 3 7 -103 callsubr
          endchar
        </CharString>
        <CharString name="dvB_JHA">
          465 822 286 rmoveto
          -2 callsubr
          -329 hlineto
          -57 -23 16 50 hvcurveto
          32 vlineto
          51 22 17 58 vhcurveto
          140 139 callsubr
          154 -96 callsubr
          -614 -442 rmoveto
          -34 callsubr
          594 -96 callsubr
          -76 -13 callsubr
          -110 hlineto
          -80 400 callsubr
          -149 -38 callsubr
          -52 86 vhcurveto
          56 hlineto
          87 51 51 91 hvcurveto
          27 vlineto
          -15 22 31 -8 37 hhcurveto
          69 hlineto
          52 21 -20 -48 hvcurveto
          -70 vlineto
          -51 564 callsubr
          -38 hlineto
          -55 -28 15 55 9 -4 3 -8 hvcurveto
          -23 hlineto
          -8 -18 callgsubr
          -184 vlineto
          411 callsubr
          102 4 vlineto
          -26 16 31 -6 37 hhcurveto
          36 hlineto
          81 45 37 75 hvcurveto
          76 vlineto
          28 -8 23 -17 13 vhcurveto
          159 hlineto
          7 479 callgsubr
          -212 203 callgsubr
          560 vlineto
          6 3 3 7 -103 callsubr
          endchar
        </CharString>
        <CharString name="dvB_J_YA">
          738 1095 259 rmoveto
          75 callgsubr
          186 vlineto
          7 2 -3 -6 hvcurveto
          -984 -251 rmoveto
          20 3 17 7 14 vhcurveto
          223 -258 rlineto
          -136 hlineto
          -64 -33 35 64 hvcurveto
          -113 410 -98 callsubr
          804 269 callsubr
          -12 387 callgsubr
          -21 hlineto
          27 -9 -22 15 -39 hhcurveto
          -292 202 callsubr
          59 hlineto
          49 40 -21 -73 hvcurveto
          -88 vlineto
          -71 540 callgsubr
          -85 hlineto
          -249 288 rlineto
          12 16 21 6 27 hhcurveto
          441 callgsubr
          5 -9 vhcurveto
          -59 hlineto
          -87 -54 -53 -88 -1 hvcurveto
          -114 vlineto
          -88 56 -52 86 vhcurveto
          280 hlineto
          77 52 42 94 hvcurveto
          92 vlineto
          43 -12 31 -29 15 vhcurveto
          4 131 vlineto
          32 3 -12 -30 hvcurveto
          -89 vlineto
          -91 60 -65 98 vhcurveto
          -41 callgsubr
          8 vhcurveto
          25 hlineto
          7 4 3 9 hvcurveto
          560 vlineto
          6 3 3 7 -103 callsubr
          endchar
        </CharString>
        <CharString name="dvB_JxA">
          386 425 8 rmoveto
          142 callsubr
          -345 313 rmoveto
          20 3 17 7 14 vhcurveto
          223 -258 rlineto
          -136 hlineto
          -64 -33 35 64 hvcurveto
          -113 410 -98 callsubr
          736 -96 callsubr
          -143 162 callsubr
          -314 202 callsubr
          59 244 callsubr
          -85 hlineto
          -249 288 rlineto
          12 16 21 6 27 hhcurveto
          441 callgsubr
          5 -9 vhcurveto
          -59 hlineto
          -87 -54 -53 -88 -1 hvcurveto
          -114 vlineto
          -88 56 -52 86 vhcurveto
          280 hlineto
          77 52 42 94 hvcurveto
          76 vlineto
          43 -12 31 -29 15 vhcurveto
          4 160 vlineto
          -35 callgsubr
          -354 vlineto
          -9 4 -3 7 vhcurveto
          26 -23 callgsubr
          560 vlineto
          6 3 3 7 -103 callsubr
          endchar
        </CharString>
        <CharString name="dvB_LA">
          464 208 130 rmoveto
          -34 callsubr
          814 -96 callsubr
          -171 -4 vlineto
          482 callgsubr
          -16 -44 18 -55 hhcurveto
          -84 -55 -44 -97 hvcurveto
          -73 -36 callsubr
          46 36 16 29 23 hvcurveto
          -66 17 49 -28 70 hhcurveto
          51 522 callgsubr
          -48 hlineto
          -63 409 callsubr
          7 vhcurveto
          25 485 callsubr
          33 23 60 311 callgsubr
          -289 vlineto
          -9 4 -3 7 vhcurveto
          26 -23 callgsubr
          560 vlineto
          6 3 3 7 -103 callsubr
          endchar
        </CharString>
        <CharString name="dvB_L_YA">
          -17 1178 438 callsubr
          -40 40 71 hvcurveto
          65 21 vlineto
          79 49 36 90 hvcurveto
          43 440 callgsubr
          -80 callgsubr
          -970 -442 rmoveto
          -34 callsubr
          887 hlineto
          430 callsubr
          -41 vlineto
          -67 257 callsubr
          -22 hlineto
          73 -8 -62 29 -64 hhcurveto
          -56 -42 -18 -48 -17 373 callsubr
          -99 -36 callsubr
          49 38 17 33 24 hvcurveto
          -50 21 46 -24 63 hhcurveto
          51 396 callsubr
          8 -3 3 -9 vhcurveto
          -48 hlineto
          -63 496 callgsubr
          72 32 27 61 59 33 -25 -70 vhcurveto
          -89 393 callgsubr
          87 vlineto
          74 33 23 60 525 callsubr
          59 -63 603 callgsubr
          51 42 19 34 18 hvcurveto
          4 -145 hlineto
          -9 4 -3 7 vhcurveto
          26 -23 callgsubr
          560 vlineto
          6 3 3 7 -103 callsubr
          endchar
        </CharString>
        <CharString name="dvB_NA">
          313 332 171 rmoveto
          -26 -15 -26 -15 -39 hhcurveto
          -44 hlineto
          344 callgsubr
          16 2 17 6 12 vhcurveto
          146 54 rmoveto
          -16 callgsubr
          -87 -54 -53 -88 hvcurveto
          312 callgsubr
          -53 86 vhcurveto
          50 hlineto
          66 40 29 53 24 hvcurveto
          -245 250 rlineto
          15 15 23 9 30 hhcurveto
          -210 180 -98 callsubr
          663 -96 callsubr
          -188 vlineto
          440 callsubr
          -55 363 callgsubr
          hvcurveto
          25 callgsubr
          -310 vlineto
          -9 4 -3 7 vhcurveto
          26 -23 callgsubr
          560 vlineto
          6 3 3 7 -103 callsubr
          endchar
        </CharString>
        <CharString name="dvB_R">
          -230 364 225 rmoveto
          -4 -9 -4 -7 -5 -6 -209 217 rcurveline
          208 callsubr
          -117 vlineto
          -87 56 -51 80 vhcurveto
          52 -4 hlineto
          0 -27 217 callsubr
          99 88 47 40 49 52 20 52 rlinecurve
          2 5 3 5 4 vvcurveto
          7 -3 3 -4 2 vhcurveto
          -11 6 -5 2 -2 1 -4 -2 rlinecurve
          -4 -1 -1 -5 -4 -7 rrcurveto
          -253 119 rmoveto
          18 2 16 6 13 vhcurveto
          214 -219 rlineto
          -26 -14 -28 -16 -39 hhcurveto
          -44 hlineto
          204 callsubr
          -113 394 -98 callsubr
          377 223 callsubr
        </CharString>
        <CharString name="dvB_RA">
          -6 250 86 rmoveto
          0 -25 217 callsubr
          97 88 rlineto
          36 32 32 36 0 vvcurveto
          4 -117 hlineto
          -9 4 -3 7 vhcurveto
          26 -23 callgsubr
          560 vlineto
          6 3 3 7 -103 callsubr
          -495 -88 callsubr
          343 5 callsubr
          -345 vlineto
          -7 -1 -7 -1 -7 vhcurveto
          -207 214 rlineto
          208 callsubr
          -117 vlineto
          -87 56 -51 80 vhcurveto
          50 hlineto
          -139 254 rmoveto
          463 callgsubr
          -44 hlineto
          204 callsubr
          endchar
        </CharString>
        <CharString name="dvB_SA">
          400 758 334 rmoveto
          -6 -3 -3 callgsubr
          3 -3 -6 hvcurveto
          -550 -442 rmoveto
          -34 callsubr
          501 -71 callgsubr
          -83 -36 callsubr
          83 53 51 89 1 hvcurveto
          125 -217 rlineto
          -6 4 3 -74 callsubr
          -150 258 rlineto
          308 callgsubr
          -259 vlineto
          -9 4 -3 7 -6 callsubr
        </CharString>
        <CharString name="dvB_SHA">
          429 311 612 rmoveto
          7 -4 4 -9 vhcurveto
          -300 -88 callsubr
          300 hlineto
          9 176 callsubr
          -103 -463 218 callsubr
          127 317 rmoveto
          50 callsubr
          51 vlineto
          60 24 23 59 59 24 -24 -59 vhcurveto
          -89 vlineto
          -72 -39 -23 -51 vhcurveto
          -140 hlineto
          -9 437 callgsubr
          -73 vlineto
          -11 -1 -10 -2 -9 vhcurveto
          -215 221 369 callgsubr
          8 30 hhcurveto
          218 callgsubr
          -53 86 vhcurveto
          53 hlineto
          83 52 51 88 1 hvcurveto
          144 -216 251 callgsubr
          -3 3 hvcurveto
          -170 253 rlineto
          93 hlineto
          84 52 43 95 hvcurveto
          89 vlineto
          86 -46 39 -84 -85 -46 -39 -86 vhcurveto
          422 125 286 callgsubr
          -587 vlineto
          -82 callgsubr
          endchar
        </CharString>
        <CharString name="dvB_TA">
          289 208 130 rmoveto
          -34 callsubr
          639 256 callgsubr
          -47 -36 callsubr
          41 35 13 23 24 hvcurveto
          -86 6 56 -37 76 hhcurveto
          -11 callgsubr
          137 127 callsubr
          143 -96 callsubr
          -349 203 callgsubr
          560 vlineto
          6 3 3 7 -103 callsubr
          endchar
        </CharString>
        <CharString name="dvB_VA">
          279 208 130 rmoveto
          -34 callsubr
          630 317 callgsubr
          107 callsubr
          -53 hlineto
          -88 -54 -53 -88 hvcurveto
          -110 -36 callsubr
          57 42 24 44 20 hvcurveto
          -40 24 42 -23 56 hhcurveto
          91 callsubr
          -106 callgsubr
          -9 vhcurveto
          endchar
        </CharString>
        <CharString name="dvB_YA">
          355 712 -91 callsubr
          -504 -442 rmoveto
          -34 callsubr
          421 391 callgsubr
          -4 vlineto
          -2 vlineto
          -25 -36 callsubr
          61 46 28 50 20 hvcurveto
          -38 26 45 -23 59 hhcurveto
          -41 callgsubr
          7 vhcurveto
          26 -23 callgsubr
          560 vlineto
          6 3 3 7 -103 callsubr
          endchar
        </CharString>
        <CharString name="dvC">
          -167 438 114 callgsubr
          -440 -88 callsubr
          323 -476 rmoveto
          66 36 35 28 23 hvcurveto
          4 4 3 5 4 vvcurveto
          5 -2 3 -4 3 570 callgsubr
          -5 -5 -5 -5 hvcurveto
          -25 -25 -21 -20 -47 hhcurveto
          -70 11 callsubr
          504 callsubr
          -34 -44 vvcurveto
          -45 vlineto
          -88 55 -52 86 vhcurveto
          endchar
        </CharString>
        <CharString name="dvCA">
          66 151 386 rmoveto
          302 callsubr
          73 hlineto
          50 33 16 32 16 hvcurveto
          4 -141 hlineto
          -9 4 -3 7 vhcurveto
          26 129 callsubr
          -567 -88 callsubr
          416 413 callgsubr
          -63 vhcurveto
          -73 11 callsubr
          hlineto
          endchar
        </CharString>
        <CharString name="dvCH">
          84 -2 623 193 callgsubr
          173 vlineto
          83 -42 42 -83 vhcurveto
          -39 hlineto
          581 callsubr
          -20 197 callgsubr
          37 hlineto
          56 24 -27 -56 hvcurveto
          -168 -21 callsubr
          378 hlineto
          9 1 3 3 8 vvcurveto
          171 callgsubr
          endchar
        </CharString>
        <CharString name="dvCHA">
          84 344 -21 callgsubr
          -385 190 193 callgsubr
          127 vlineto
          47 -14 34 -27 20 vhcurveto
          9 9 5 14 18 vvcurveto
          122 vlineto
          5 3 3 8 vhcurveto
          91 hlineto
          9 1 3 3 8 vvcurveto
          171 callgsubr
          endchar
        </CharString>
        <CharString name="dvCH_RA">
          84 344 -21 callgsubr
          -385 190 55 callgsubr
          28 hlineto
          -94 -124 -4 callsubr
          -94 124 rlineto
          22 56 callsubr
        </CharString>
        <CharString name="dvCH_R_YA">
          571 928 247 rmoveto
          -66 -41 -46 -73 vhcurveto
          -54 545 callsubr
          69 -42 40 -88 hvcurveto
          -326 hlineto
          581 callsubr
          -20 197 callgsubr
          37 hlineto
          56 24 -27 -56 hvcurveto
          -168 -21 callsubr
          714 -96 callsubr
          -930 51 55 callgsubr
          52 hlineto
          -104 -137 -4 callsubr
          -104 137 rlineto
          18 hlineto
          87 51 58 81 hvcurveto
          173 vlineto
          35 -7 28 -15 20 vhcurveto
          185 hlineto
          55 27 -18 -49 -52 -26 -22 -56 hvcurveto
          -56 hlineto
          581 callsubr
          -38 vlineto
          -98 53 -58 101 vhcurveto
          57 455 callsubr
          -134 hlineto
          -9 4 -3 7 vhcurveto
          26 -23 callgsubr
          560 vlineto
          6 3 -17 callgsubr
        </CharString>
        <CharString name="dvCH_YA">
          571 928 242 rmoveto
          -67 -41 -46 -74 vhcurveto
          -53 545 callsubr
          70 -43 41 -87 hvcurveto
          -326 hlineto
          581 callsubr
          -21 vlineto
          -7 4 -5 9 vhcurveto
          37 hlineto
          56 24 -24 -57 hvcurveto
          -164 -21 callsubr
          713 5 callsubr
          -930 51 193 callgsubr
          170 vlineto
          34 -7 27 -14 20 vhcurveto
          184 hlineto
          55 27 -18 -50 -52 -26 -22 -56 hvcurveto
          -56 hlineto
          -10 165 callgsubr
          -38 vlineto
          -98 53 -58 101 vhcurveto
          57 hlineto
          52 41 19 35 18 hvcurveto
          4 -128 hlineto
          -9 4 -3 7 vhcurveto
          26 -23 callgsubr
          560 vlineto
          6 3 -17 callgsubr
        </CharString>
        <CharString name="dvC_CA">
          371 -90 callgsubr
          720 413 callgsubr
          -62 vhcurveto
          -73 hlineto
          -64 -34 35 63 hvcurveto
          44 vlineto
          63 33 36 59 vhcurveto
          65 4 callgsubr
          -248 -48 callsubr
          89 -4 hlineto
          -32 -18 -14 -34 -44 vvcurveto
          -45 vlineto
          -17 2 -16 4 -15 vhcurveto
          -2 -2 rlineto
          -26 -25 -21 -20 -47 hhcurveto
          -70 389 callsubr
          44 vlineto
          63 32 36 60 vhcurveto
          24 hlineto
          9 -7 callsubr
          -236 322 callgsubr
          74 hlineto
          57 35 26 25 23 hvcurveto
          -33 24 40 -18 51 hhcurveto
          73 hlineto
          50 33 16 32 16 hvcurveto
          4 -141 hlineto
          -9 5 -97 callgsubr
          8 4 -104 callsubr
          -4 4 -8 vhcurveto
          endchar
        </CharString>
        <CharString name="dvC_CHA">
          425 685 -21 callgsubr
          -726 190 -98 callsubr
          456 407 callsubr
          -11 122 callgsubr
          -26 vlineto
          -25 -25 -21 -20 -47 hhcurveto
          -73 11 callsubr
          504 callsubr
          -34 -44 vvcurveto
          -45 vlineto
          -88 55 -52 86 vhcurveto
          77 hlineto
          43 31 15 18 22 hvcurveto
          -63 12 46 -32 73 hhcurveto
          160 56 callsubr
        </CharString>
        <CharString name="dvC_CH_VA">
          416 679 466 -98 callsubr
          38 hlineto
          56 23 -26 -57 hvcurveto
          -90 vlineto
          -64 -33 -35 -63 vhcurveto
          -152 hlineto
          -62 -26 27 62 hvcurveto
          10 vlineto
          57 26 29 58 vhcurveto
          40 hlineto
          8 4 4 7 hvcurveto
          21 163 callgsubr
          -42 hlineto
          -54 -28 28 55 hvcurveto
          29 589 callgsubr
          57 vhcurveto
          215 -92 callgsubr
          -90 vlineto
          -8 -1 -7 -2 -6 vhcurveto
          3 -13 -15 2 -16 hhcurveto
          -141 -520 rmoveto
          -65 -25 28 61 42 21 31 56 hvcurveto
          135 hlineto
          25 23 5 10 20 hvcurveto
          -78 vlineto
          -61 -32 -38 -66 vhcurveto
          -671 677 -98 callsubr
          451 -4 hlineto
          -27 -14 -10 -28 -42 vvcurveto
          -34 vlineto
          -50 18 -33 45 -15 vhcurveto
          -4 vlineto
          -44 -15 -19 -34 -56 vvcurveto
          -14 vlineto
          -17 2 -15 3 -14 vhcurveto
          -24 -25 -21 -19 -46 hhcurveto
          -74 389 callsubr
          44 vlineto
          63 32 36 60 135 callgsubr
          -274 322 callgsubr
          78 hlineto
          54 34 23 24 23 hvcurveto
          11 -14 15 -11 17 -7 rrcurveto
          -24 -17 -16 -27 -44 vvcurveto
          -84 47 -45 85 vhcurveto
          104 hlineto
          85 54 56 87 hvcurveto
          115 vlineto
          19 26 11 34 40 vvcurveto
          80 vlineto
          49 -14 34 -29 20 vhcurveto
          8 9 5 14 17 vvcurveto
          89 vlineto
          5 2 3 8 vhcurveto
          94 hlineto
          9 1 3 3 8 vvcurveto
          171 callgsubr
          endchar
        </CharString>
        <CharString name="dvC_MA">
          333 690 367 rmoveto
          -6 -2 -3 179 callgsubr
          2 8 hvcurveto
          204 48 callgsubr
          205 -96 callsubr
          -692 -89 callsubr
          411 -92 callgsubr
          -312 vlineto
          -64 -34 -34 -64 vhcurveto
          -70 hlineto
          -63 -34 34 64 hvcurveto
          41 vlineto
          62 32 37 60 vhcurveto
          64 384 callgsubr
          5 -9 vhcurveto
          -276 hlineto
          -9 -3 -5 -7 hvcurveto
          -21 vlineto
          -8 3 -3 9 vhcurveto
          117 -4 hlineto
          -31 -19 -14 -34 -44 vvcurveto
          -41 vlineto
          -89 55 -51 86 vhcurveto
          78 hlineto
          87 55 51 89 hvcurveto
          48 48 callgsubr
          204 5 callsubr
          -294 vlineto
          -9 4 -3 7 vhcurveto
          26 -23 callgsubr
          560 vlineto
          6 3 3 7 -103 callsubr
          endchar
        </CharString>
        <CharString name="dvC_NA">
          332 -90 callgsubr
          682 -92 callgsubr
          -198 98 callgsubr
          -182 hlineto
          -63 -34 -40 -62 -12 1 -14 3 -13 hvcurveto
          -24 -24 -20 -20 -47 hhcurveto
          -63 hlineto
          -62 -35 33 63 hvcurveto
          18 vlineto
          62 32 36 60 vhcurveto
          64 hlineto
          9 4 4 7 hvcurveto
          22 vlineto
          7 -4 78 callsubr
          504 callsubr
          -34 -44 vvcurveto
          -18 vlineto
          -87 55 -51 86 vhcurveto
          68 hlineto
          47 32 19 22 23 hvcurveto
          3 -9 3 -8 3 -7 rrcurveto
          -7 4 5 320 callgsubr
          4 5 531 callgsubr
          -12 30 38 vvcurveto
          41 417 callgsubr
          -4 -6 hvcurveto
          -300 vlineto
          -9 4 -3 7 -6 callsubr
        </CharString>
        <CharString name="dvC_R">
          -166 401 114 callgsubr
          -403 -88 callsubr
          353 -499 rmoveto
          37 28 43 43 16 17 rrcurveto
          6 5 4 6 5 vvcurveto
          4 -2 3 -3 3 vhcurveto
          -9 8 562 callgsubr
          2 -4 493 callgsubr
          -38 -36 -27 -13 -48 hhcurveto
          -57 11 callsubr
          504 callsubr
          -34 -45 vvcurveto
          -47 vlineto
          -84 55 -50 81 vhcurveto
          77 -4 hlineto
          313 callgsubr
          90 7 8 rrcurveto
          endchar
        </CharString>
</ttFont>
